<svg width="58" height="57" viewBox="0 0 58 57" fill="none" xmlns="http://www.w3.org/2000/svg">
<ellipse cx="29.117" cy="28.6802" rx="28.8167" ry="27.9822" fill="#DAFAFC"/>
<g clip-path="url(#clip0_152_384)">
<path d="M41.863 20.3481L32.5171 16.0247C30.4599 14.8315 27.8994 14.8103 25.8215 15.9693L16.3705 20.3481C16.335 20.3654 16.2982 20.3839 16.264 20.4035C14.0212 21.6488 13.2426 24.4238 14.525 26.6017C14.9597 27.34 15.5991 27.9449 16.3705 28.3477L18.9775 29.5538V35.5842C18.9791 38.2808 20.786 40.6631 23.4375 41.4645C25.2827 41.9828 27.196 42.2366 29.1168 42.2177C31.0372 42.2386 32.9505 41.9869 34.796 41.4707C37.4475 40.6693 39.2545 38.2869 39.256 35.5904V29.5513L41.7908 28.3748V38.5255C41.7908 39.2052 42.3583 39.7562 43.0582 39.7562C43.7582 39.7562 44.3256 39.2052 44.3256 38.5255V23.7572C44.334 22.312 43.1589 20.977 41.863 20.3481ZM36.7211 35.5904C36.7218 37.2033 35.6441 38.63 34.0596 39.1138C32.4528 39.5597 30.7877 39.7761 29.1167 39.7563C27.4457 39.7761 25.7806 39.5597 24.1739 39.1138C22.5893 38.63 21.5117 37.2033 21.5123 35.5904V30.7267L25.7163 32.6712C26.7536 33.2693 27.9383 33.5836 29.1446 33.5807C30.2929 33.5886 31.4219 33.2934 32.4107 32.7266L36.7211 30.7266V35.5904ZM40.7768 26.1263L31.2181 30.5568C29.8853 31.3104 28.2333 31.289 26.9216 30.5014L17.5694 26.1817C16.527 25.6358 16.1376 24.3727 16.6997 23.3605C16.8898 23.0182 17.1749 22.7344 17.5226 22.5413L27.0217 18.1354C28.3549 17.3835 30.006 17.4047 31.3182 18.1908L40.664 22.5142C41.3513 22.8848 41.7813 23.5846 41.7907 24.348C41.792 25.071 41.4085 25.7435 40.7768 26.1263Z" fill="#008080"/>
</g>
<defs>
<clipPath id="clip0_152_384">
<rect width="30.4176" height="29.5367" fill="white" transform="translate(13.9082 13.9118)"/>
</clipPath>
</defs>
</svg>
