<svg width="440" height="133" viewBox="0 0 440 133" fill="none" xmlns="http://www.w3.org/2000/svg">
<g filter="url(#filter0_d_351_611)">
<rect x="34" y="20" width="371.163" height="65" rx="32.5" fill="white" shape-rendering="crispEdges"/>
<g clip-path="url(#clip0_351_611)">
<path d="M71.5385 64.8776V52.0654L67.565 48.4303L64.002 46.4131V62.6166C64.002 63.8676 65.0156 64.8776 66.263 64.8776H71.5385Z" fill="#4285F4"/>
<path d="M89.6255 64.8775H94.901C96.1522 64.8775 97.162 63.8637 97.162 62.6165V46.4131L93.1263 48.7236L89.6255 52.0653V64.8775Z" fill="#34A853"/>
<path d="M71.5382 52.066L70.9976 47.0599L71.5382 42.2686L80.582 49.0515L89.6258 42.2686L90.2306 46.8012L89.6258 52.066L80.582 58.8489L71.5382 52.066Z" fill="#EA4335"/>
<path d="M89.626 42.2683V52.0657L97.1625 46.4134V43.3987C97.1625 40.6028 93.9708 39.0088 91.7363 40.6857L89.626 42.2683Z" fill="#FBBC04"/>
<path d="M64.002 46.4134L67.4681 49.0132L71.5385 52.0658V42.2684L69.4281 40.6857C67.1898 39.0088 64.002 40.6028 64.002 43.3987V46.4134Z" fill="#C5221F"/>
</g>
<path d="M120.578 58V56.24C120.519 56.4233 120.347 56.6763 120.061 56.999C119.782 57.3217 119.397 57.615 118.906 57.879C118.422 58.1357 117.85 58.264 117.19 58.264C116.354 58.264 115.595 58.066 114.913 57.67C114.238 57.274 113.699 56.7203 113.296 56.009C112.9 55.2903 112.702 54.4507 112.702 53.49C112.702 52.5293 112.9 51.6933 113.296 50.982C113.699 50.2633 114.238 49.706 114.913 49.31C115.595 48.9067 116.354 48.705 117.19 48.705C117.842 48.705 118.407 48.8223 118.884 49.057C119.368 49.2917 119.753 49.563 120.039 49.871C120.332 50.179 120.504 50.443 120.556 50.663V48.969H122.448V58H120.578ZM114.594 53.49C114.594 54.1427 114.737 54.7073 115.023 55.184C115.309 55.6607 115.679 56.031 116.134 56.295C116.596 56.5517 117.087 56.68 117.608 56.68C118.165 56.68 118.664 56.548 119.104 56.284C119.544 56.02 119.892 55.6497 120.149 55.173C120.405 54.689 120.534 54.128 120.534 53.49C120.534 52.852 120.405 52.2947 120.149 51.818C119.892 51.334 119.544 50.96 119.104 50.696C118.664 50.4247 118.165 50.289 117.608 50.289C117.087 50.289 116.596 50.421 116.134 50.685C115.679 50.949 115.309 51.3193 115.023 51.796C114.737 52.2727 114.594 52.8373 114.594 53.49ZM124.961 58V42.864H126.897V50.663C126.941 50.4357 127.113 50.168 127.414 49.86C127.715 49.552 128.118 49.2843 128.624 49.057C129.13 48.8223 129.713 48.705 130.373 48.705C131.216 48.705 131.964 48.9067 132.617 49.31C133.27 49.706 133.783 50.2633 134.157 50.982C134.538 51.6933 134.729 52.5293 134.729 53.49C134.729 54.4507 134.538 55.2903 134.157 56.009C133.783 56.7203 133.27 57.274 132.617 57.67C131.964 58.066 131.216 58.264 130.373 58.264C129.75 58.264 129.185 58.1467 128.679 57.912C128.18 57.6773 127.773 57.4023 127.458 57.087C127.143 56.7717 126.945 56.4893 126.864 56.24V58H124.961ZM132.826 53.49C132.826 52.8373 132.694 52.2727 132.43 51.796C132.166 51.3193 131.814 50.949 131.374 50.685C130.941 50.421 130.465 50.289 129.944 50.289C129.379 50.289 128.866 50.4247 128.404 50.696C127.942 50.96 127.575 51.334 127.304 51.818C127.033 52.2947 126.897 52.852 126.897 53.49C126.897 54.128 127.033 54.689 127.304 55.173C127.575 55.6497 127.942 56.02 128.404 56.284C128.866 56.548 129.379 56.68 129.944 56.68C130.465 56.68 130.941 56.5517 131.374 56.295C131.814 56.031 132.166 55.6607 132.43 55.184C132.694 54.7073 132.826 54.1427 132.826 53.49ZM141.657 48.705C142.251 48.705 142.827 48.8297 143.384 49.079C143.949 49.3283 144.411 49.7243 144.77 50.267C145.137 50.8023 145.32 51.5027 145.32 52.368V58H143.384V52.742C143.384 51.8473 143.179 51.1983 142.768 50.795C142.365 50.3843 141.833 50.179 141.173 50.179C140.733 50.179 140.312 50.3037 139.908 50.553C139.505 50.795 139.171 51.1323 138.907 51.565C138.651 51.9903 138.522 52.4743 138.522 53.017V58H136.586V42.864H138.522V50.575C138.588 50.3257 138.764 50.0543 139.05 49.761C139.344 49.4677 139.718 49.2183 140.172 49.013C140.627 48.8077 141.122 48.705 141.657 48.705ZM148.116 58V48.969H150.03V58H148.116ZM149.095 45.878C148.751 45.878 148.454 45.757 148.204 45.515C147.962 45.2657 147.841 44.9687 147.841 44.624C147.841 44.2793 147.962 43.9823 148.204 43.733C148.454 43.4837 148.751 43.359 149.095 43.359C149.323 43.359 149.532 43.4177 149.722 43.535C149.92 43.6523 150.078 43.8063 150.195 43.997C150.313 44.1803 150.371 44.3893 150.371 44.624C150.371 44.9687 150.247 45.2657 149.997 45.515C149.748 45.757 149.447 45.878 149.095 45.878ZM156.938 58.264C156.11 58.264 155.365 58.066 154.705 57.67C154.053 57.274 153.536 56.7203 153.154 56.009C152.78 55.2903 152.593 54.4507 152.593 53.49C152.593 52.5293 152.78 51.6933 153.154 50.982C153.536 50.2633 154.053 49.706 154.705 49.31C155.365 48.9067 156.11 48.705 156.938 48.705C157.606 48.705 158.192 48.8223 158.698 49.057C159.204 49.2843 159.608 49.552 159.908 49.86C160.209 50.168 160.381 50.4357 160.425 50.663V42.864H162.35V58H160.458V56.24C160.378 56.4893 160.176 56.7717 159.853 57.087C159.538 57.4023 159.131 57.6773 158.632 57.912C158.134 58.1467 157.569 58.264 156.938 58.264ZM157.378 56.68C157.936 56.68 158.445 56.548 158.907 56.284C159.369 56.02 159.736 55.6497 160.007 55.173C160.286 54.689 160.425 54.128 160.425 53.49C160.425 52.852 160.286 52.2947 160.007 51.818C159.736 51.334 159.369 50.96 158.907 50.696C158.445 50.4247 157.936 50.289 157.378 50.289C156.865 50.289 156.388 50.421 155.948 50.685C155.508 50.949 155.153 51.3193 154.881 51.796C154.617 52.2727 154.485 52.8373 154.485 53.49C154.485 54.1427 154.617 54.7073 154.881 55.184C155.153 55.6607 155.508 56.031 155.948 56.295C156.388 56.5517 156.865 56.68 157.378 56.68ZM171.753 58V56.24C171.695 56.4233 171.522 56.6763 171.236 56.999C170.958 57.3217 170.573 57.615 170.081 57.879C169.597 58.1357 169.025 58.264 168.365 58.264C167.529 58.264 166.77 58.066 166.088 57.67C165.414 57.274 164.875 56.7203 164.471 56.009C164.075 55.2903 163.877 54.4507 163.877 53.49C163.877 52.5293 164.075 51.6933 164.471 50.982C164.875 50.2633 165.414 49.706 166.088 49.31C166.77 48.9067 167.529 48.705 168.365 48.705C169.018 48.705 169.583 48.8223 170.059 49.057C170.543 49.2917 170.928 49.563 171.214 49.871C171.508 50.179 171.68 50.443 171.731 50.663V48.969H173.623V58H171.753ZM165.769 53.49C165.769 54.1427 165.912 54.7073 166.198 55.184C166.484 55.6607 166.855 56.031 167.309 56.295C167.771 56.5517 168.263 56.68 168.783 56.68C169.341 56.68 169.839 56.548 170.279 56.284C170.719 56.02 171.068 55.6497 171.324 55.173C171.581 54.689 171.709 54.128 171.709 53.49C171.709 52.852 171.581 52.2947 171.324 51.818C171.068 51.334 170.719 50.96 170.279 50.696C169.839 50.4247 169.341 50.289 168.783 50.289C168.263 50.289 167.771 50.421 167.309 50.685C166.855 50.949 166.484 51.3193 166.198 51.796C165.912 52.2727 165.769 52.8373 165.769 53.49ZM175.411 48.969H177.182V45.262H179.085V48.969H181.406V50.608H179.085V55.074C179.085 55.602 179.177 55.9907 179.36 56.24C179.551 56.4893 179.804 56.614 180.119 56.614C180.398 56.614 180.614 56.5627 180.768 56.46C180.922 56.3573 181.014 56.2877 181.043 56.251L181.802 57.659C181.758 57.6957 181.641 57.7653 181.45 57.868C181.259 57.9707 181.014 58.0623 180.713 58.143C180.412 58.2237 180.06 58.264 179.657 58.264C178.953 58.264 178.363 58.0513 177.886 57.626C177.417 57.1933 177.182 56.5113 177.182 55.58V50.608H175.411V48.969ZM182.587 48.969H184.358V45.262H186.261V48.969H188.582V50.608H186.261V55.074C186.261 55.602 186.352 55.9907 186.536 56.24C186.726 56.4893 186.979 56.614 187.295 56.614C187.573 56.614 187.79 56.5627 187.944 56.46C188.098 56.3573 188.189 56.2877 188.219 56.251L188.978 57.659C188.934 57.6957 188.816 57.7653 188.626 57.868C188.435 57.9707 188.189 58.0623 187.889 58.143C187.588 58.2237 187.236 58.264 186.833 58.264C186.129 58.264 185.538 58.0513 185.062 57.626C184.592 57.1933 184.358 56.5113 184.358 55.58V50.608H182.587V48.969ZM192.686 58.264C192.283 58.264 191.934 58.121 191.641 57.835C191.355 57.5417 191.212 57.1933 191.212 56.79C191.212 56.372 191.355 56.02 191.641 55.734C191.934 55.4407 192.283 55.294 192.686 55.294C193.104 55.294 193.456 55.4407 193.742 55.734C194.028 56.02 194.171 56.372 194.171 56.79C194.171 57.1933 194.028 57.5417 193.742 57.835C193.456 58.121 193.104 58.264 192.686 58.264ZM200.838 48.705C201.308 48.705 201.744 48.7527 202.147 48.848C202.558 48.9433 202.91 49.057 203.203 49.189C203.504 49.321 203.717 49.4383 203.841 49.541L203.082 50.751C202.936 50.619 202.672 50.4723 202.29 50.311C201.909 50.1423 201.484 50.058 201.014 50.058C200.501 50.058 200.065 50.1607 199.705 50.366C199.346 50.564 199.166 50.8537 199.166 51.235C199.166 51.6163 199.35 51.9207 199.716 52.148C200.09 52.368 200.589 52.5513 201.212 52.698C201.711 52.8153 202.177 52.973 202.609 53.171C203.049 53.369 203.405 53.644 203.676 53.996C203.948 54.3407 204.083 54.8027 204.083 55.382C204.083 55.91 203.973 56.361 203.753 56.735C203.533 57.1017 203.236 57.3987 202.862 57.626C202.488 57.846 202.07 58.0073 201.608 58.11C201.146 58.2127 200.677 58.264 200.2 58.264C199.643 58.264 199.141 58.2053 198.693 58.088C198.246 57.978 197.868 57.846 197.56 57.692C197.26 57.5307 197.04 57.3913 196.9 57.274L197.659 55.91C197.85 56.0933 198.162 56.2877 198.594 56.493C199.034 56.6983 199.533 56.801 200.09 56.801C200.706 56.801 201.205 56.6727 201.586 56.416C201.968 56.152 202.158 55.811 202.158 55.393C202.158 55.0777 202.067 54.8247 201.883 54.634C201.7 54.4433 201.454 54.2893 201.146 54.172C200.838 54.0547 200.501 53.952 200.134 53.864C199.782 53.7833 199.438 53.677 199.1 53.545C198.77 53.413 198.466 53.2443 198.187 53.039C197.916 52.8263 197.7 52.5697 197.538 52.269C197.377 51.961 197.296 51.6017 197.296 51.191C197.296 50.6703 197.461 50.2267 197.791 49.86C198.121 49.486 198.554 49.2 199.089 49.002C199.625 48.804 200.208 48.705 200.838 48.705ZM211.417 48.705C212.011 48.705 212.587 48.8297 213.144 49.079C213.709 49.3283 214.171 49.7243 214.53 50.267C214.897 50.8023 215.08 51.5027 215.08 52.368V58H213.144V52.742C213.144 51.8473 212.939 51.1983 212.528 50.795C212.125 50.3843 211.593 50.179 210.933 50.179C210.493 50.179 210.071 50.3037 209.668 50.553C209.265 50.795 208.931 51.1323 208.667 51.565C208.41 51.9903 208.282 52.4743 208.282 53.017V58H206.346V42.864H208.282V50.575C208.348 50.3257 208.524 50.0543 208.81 49.761C209.103 49.4677 209.477 49.2183 209.932 49.013C210.387 48.8077 210.882 48.705 211.417 48.705ZM224.927 58V56.24C224.869 56.4233 224.696 56.6763 224.41 56.999C224.132 57.3217 223.747 57.615 223.255 57.879C222.771 58.1357 222.199 58.264 221.539 58.264C220.703 58.264 219.944 58.066 219.262 57.67C218.588 57.274 218.049 56.7203 217.645 56.009C217.249 55.2903 217.051 54.4507 217.051 53.49C217.051 52.5293 217.249 51.6933 217.645 50.982C218.049 50.2633 218.588 49.706 219.262 49.31C219.944 48.9067 220.703 48.705 221.539 48.705C222.192 48.705 222.757 48.8223 223.233 49.057C223.717 49.2917 224.102 49.563 224.388 49.871C224.682 50.179 224.854 50.443 224.905 50.663V48.969H226.797V58H224.927ZM218.943 53.49C218.943 54.1427 219.086 54.7073 219.372 55.184C219.658 55.6607 220.029 56.031 220.483 56.295C220.945 56.5517 221.437 56.68 221.957 56.68C222.515 56.68 223.013 56.548 223.453 56.284C223.893 56.02 224.242 55.6497 224.498 55.173C224.755 54.689 224.883 54.128 224.883 53.49C224.883 52.852 224.755 52.2947 224.498 51.818C224.242 51.334 223.893 50.96 223.453 50.696C223.013 50.4247 222.515 50.289 221.957 50.289C221.437 50.289 220.945 50.421 220.483 50.685C220.029 50.949 219.658 51.3193 219.372 51.796C219.086 52.2727 218.943 52.8373 218.943 53.49ZM231.236 58H229.333V48.969H231.236V50.531H231.181C231.217 50.3403 231.353 50.102 231.588 49.816C231.822 49.53 232.145 49.2733 232.556 49.046C232.966 48.8187 233.458 48.705 234.03 48.705C234.448 48.705 234.814 48.7637 235.13 48.881C235.452 48.991 235.68 49.101 235.812 49.211L235.031 50.795C234.928 50.6923 234.748 50.5897 234.492 50.487C234.235 50.377 233.916 50.322 233.535 50.322C233.051 50.322 232.636 50.4723 232.292 50.773C231.947 51.0737 231.683 51.4367 231.5 51.862C231.324 52.28 231.236 52.6687 231.236 53.028V58ZM247.881 48.705C248.548 48.705 249.12 48.8517 249.597 49.145C250.074 49.431 250.437 49.871 250.686 50.465C250.943 51.059 251.071 51.818 251.071 52.742V58H249.179V53.127C249.179 52.1517 249.043 51.4183 248.772 50.927C248.501 50.4357 248.006 50.19 247.287 50.19C246.906 50.19 246.539 50.2963 246.187 50.509C245.842 50.7143 245.556 51.0333 245.329 51.466C245.109 51.8987 244.999 52.4523 244.999 53.127V58H243.217V53.127C243.217 52.1517 243.048 51.4183 242.711 50.927C242.374 50.4357 241.901 50.19 241.292 50.19C240.903 50.19 240.537 50.2927 240.192 50.498C239.855 50.696 239.58 51.0113 239.367 51.444C239.154 51.8767 239.048 52.4377 239.048 53.127V58H237.145V48.969H239.048V50.355C239.129 50.1277 239.301 49.8857 239.565 49.629C239.836 49.3723 240.181 49.156 240.599 48.98C241.024 48.7967 241.497 48.705 242.018 48.705C242.561 48.705 243.015 48.815 243.382 49.035C243.749 49.255 244.038 49.5263 244.251 49.849C244.464 50.1643 244.61 50.4687 244.691 50.762C244.794 50.4467 244.992 50.1313 245.285 49.816C245.578 49.4933 245.949 49.2293 246.396 49.024C246.843 48.8113 247.338 48.705 247.881 48.705ZM260.978 58V56.24C260.919 56.4233 260.747 56.6763 260.461 56.999C260.182 57.3217 259.797 57.615 259.306 57.879C258.822 58.1357 258.25 58.264 257.59 58.264C256.754 58.264 255.995 58.066 255.313 57.67C254.638 57.274 254.099 56.7203 253.696 56.009C253.3 55.2903 253.102 54.4507 253.102 53.49C253.102 52.5293 253.3 51.6933 253.696 50.982C254.099 50.2633 254.638 49.706 255.313 49.31C255.995 48.9067 256.754 48.705 257.59 48.705C258.243 48.705 258.807 48.8223 259.284 49.057C259.768 49.2917 260.153 49.563 260.439 49.871C260.732 50.179 260.905 50.443 260.956 50.663V48.969H262.848V58H260.978ZM254.994 53.49C254.994 54.1427 255.137 54.7073 255.423 55.184C255.709 55.6607 256.079 56.031 256.534 56.295C256.996 56.5517 257.487 56.68 258.008 56.68C258.565 56.68 259.064 56.548 259.504 56.284C259.944 56.02 260.292 55.6497 260.549 55.173C260.806 54.689 260.934 54.128 260.934 53.49C260.934 52.852 260.806 52.2947 260.549 51.818C260.292 51.334 259.944 50.96 259.504 50.696C259.064 50.4247 258.565 50.289 258.008 50.289C257.487 50.289 256.996 50.421 256.534 50.685C256.079 50.949 255.709 51.3193 255.423 51.796C255.137 52.2727 254.994 52.8373 254.994 53.49ZM272.544 58.264C271.466 58.264 270.458 58.0843 269.519 57.725C268.588 57.3583 267.767 56.8413 267.055 56.174C266.351 55.5067 265.798 54.7147 265.394 53.798C264.998 52.874 264.8 51.851 264.8 50.729C264.8 49.6143 265.013 48.5987 265.438 47.682C265.864 46.758 266.443 45.9623 267.176 45.295C267.917 44.6277 268.768 44.1143 269.728 43.755C270.689 43.3957 271.708 43.216 272.786 43.216C273.813 43.216 274.781 43.3847 275.69 43.722C276.607 44.0593 277.417 44.5397 278.121 45.163C278.833 45.779 279.386 46.516 279.782 47.374C280.186 48.232 280.387 49.1817 280.387 50.223C280.387 51.0957 280.211 51.8217 279.859 52.401C279.515 52.9803 279.082 53.4167 278.561 53.71C278.041 53.996 277.513 54.139 276.977 54.139C276.398 54.139 275.958 54.0033 275.657 53.732C275.364 53.4607 275.184 53.1343 275.118 52.753C275.052 53.0097 274.895 53.27 274.645 53.534C274.403 53.798 274.07 54.0217 273.644 54.205C273.226 54.381 272.728 54.469 272.148 54.469C271.408 54.469 270.762 54.304 270.212 53.974C269.662 53.6367 269.233 53.193 268.925 52.643C268.625 52.0857 268.474 51.4733 268.474 50.806C268.474 50.146 268.621 49.552 268.914 49.024C269.208 48.4887 269.618 48.067 270.146 47.759C270.682 47.4437 271.309 47.286 272.027 47.286C272.497 47.286 272.907 47.363 273.259 47.517C273.619 47.671 273.916 47.847 274.15 48.045C274.392 48.243 274.561 48.408 274.656 48.54V47.528H275.976V51.686C275.976 51.8107 275.998 51.9647 276.042 52.148C276.094 52.3313 276.189 52.4963 276.328 52.643C276.475 52.7823 276.691 52.852 276.977 52.852C277.249 52.852 277.527 52.7603 277.813 52.577C278.107 52.3863 278.352 52.093 278.55 51.697C278.748 51.301 278.847 50.7913 278.847 50.168C278.847 49.3833 278.693 48.6573 278.385 47.99C278.085 47.3153 277.659 46.725 277.109 46.219C276.567 45.713 275.925 45.3207 275.184 45.042C274.451 44.7633 273.652 44.624 272.786 44.624C271.936 44.624 271.122 44.778 270.344 45.086C269.574 45.3867 268.889 45.8157 268.287 46.373C267.686 46.923 267.209 47.5683 266.857 48.309C266.513 49.0497 266.34 49.8563 266.34 50.729C266.34 51.5943 266.505 52.3937 266.835 53.127C267.165 53.8603 267.616 54.502 268.188 55.052C268.768 55.5947 269.431 56.0163 270.179 56.317C270.927 56.6177 271.716 56.768 272.544 56.768C273.234 56.768 273.853 56.68 274.403 56.504C274.953 56.3207 275.419 56.1007 275.8 55.844C276.182 55.5873 276.46 55.3417 276.636 55.107L277.912 56.174C277.685 56.4673 277.322 56.779 276.823 57.109C276.325 57.4317 275.716 57.7067 274.997 57.934C274.279 58.154 273.461 58.264 272.544 58.264ZM272.401 53.116C273.113 53.116 273.666 52.885 274.062 52.423C274.466 51.961 274.667 51.4147 274.667 50.784C274.667 50.3513 274.565 49.9737 274.359 49.651C274.154 49.321 273.879 49.0643 273.534 48.881C273.197 48.6903 272.819 48.595 272.401 48.595C271.734 48.595 271.18 48.8113 270.74 49.244C270.3 49.6693 270.08 50.201 270.08 50.839C270.08 51.477 270.289 52.016 270.707 52.456C271.133 52.896 271.697 53.116 272.401 53.116ZM286.604 62.829C285.893 62.829 285.248 62.7557 284.668 62.609C284.096 62.4623 283.594 62.2533 283.161 61.982C282.736 61.718 282.395 61.4063 282.138 61.047L283.392 59.848C283.532 60.0387 283.719 60.2403 283.953 60.453C284.195 60.673 284.522 60.86 284.932 61.014C285.343 61.168 285.878 61.245 286.538 61.245C287.184 61.245 287.73 61.1057 288.177 60.827C288.625 60.5557 288.966 60.1853 289.2 59.716C289.435 59.2467 289.552 58.7187 289.552 58.132V57.835H291.422V58.253C291.422 59.2503 291.206 60.0863 290.773 60.761C290.348 61.443 289.772 61.9563 289.046 62.301C288.32 62.653 287.506 62.829 286.604 62.829ZM289.552 58V56.24C289.494 56.4233 289.321 56.6763 289.035 56.999C288.757 57.3217 288.372 57.615 287.88 57.879C287.396 58.1357 286.824 58.264 286.164 58.264C285.328 58.264 284.569 58.066 283.887 57.67C283.213 57.274 282.674 56.7203 282.27 56.009C281.874 55.2903 281.676 54.4507 281.676 53.49C281.676 52.5293 281.874 51.6933 282.27 50.982C282.674 50.2633 283.213 49.706 283.887 49.31C284.569 48.9067 285.328 48.705 286.164 48.705C286.817 48.705 287.382 48.8223 287.858 49.057C288.342 49.2917 288.727 49.563 289.013 49.871C289.307 50.179 289.479 50.443 289.53 50.663V48.969H291.422V58H289.552ZM283.568 53.49C283.568 54.1427 283.711 54.7073 283.997 55.184C284.283 55.6607 284.654 56.031 285.108 56.295C285.57 56.5517 286.062 56.68 286.582 56.68C287.14 56.68 287.638 56.548 288.078 56.284C288.518 56.02 288.867 55.6497 289.123 55.173C289.38 54.689 289.508 54.128 289.508 53.49C289.508 52.852 289.38 52.2947 289.123 51.818C288.867 51.334 288.518 50.96 288.078 50.696C287.638 50.4247 287.14 50.289 286.582 50.289C286.062 50.289 285.57 50.421 285.108 50.685C284.654 50.949 284.283 51.3193 283.997 51.796C283.711 52.2727 283.568 52.8373 283.568 53.49ZM304.901 48.705C305.568 48.705 306.14 48.8517 306.617 49.145C307.093 49.431 307.456 49.871 307.706 50.465C307.962 51.059 308.091 51.818 308.091 52.742V58H306.199V53.127C306.199 52.1517 306.063 51.4183 305.792 50.927C305.52 50.4357 305.025 50.19 304.307 50.19C303.925 50.19 303.559 50.2963 303.207 50.509C302.862 50.7143 302.576 51.0333 302.349 51.466C302.129 51.8987 302.019 52.4523 302.019 53.127V58H300.237V53.127C300.237 52.1517 300.068 51.4183 299.731 50.927C299.393 50.4357 298.92 50.19 298.312 50.19C297.923 50.19 297.556 50.2927 297.212 50.498C296.874 50.696 296.599 51.0113 296.387 51.444C296.174 51.8767 296.068 52.4377 296.068 53.127V58H294.165V48.969H296.068V50.355C296.148 50.1277 296.321 49.8857 296.585 49.629C296.856 49.3723 297.201 49.156 297.619 48.98C298.044 48.7967 298.517 48.705 299.038 48.705C299.58 48.705 300.035 48.815 300.402 49.035C300.768 49.255 301.058 49.5263 301.271 49.849C301.483 50.1643 301.63 50.4687 301.711 50.762C301.813 50.4467 302.011 50.1313 302.305 49.816C302.598 49.4933 302.968 49.2293 303.416 49.024C303.863 48.8113 304.358 48.705 304.901 48.705ZM317.998 58V56.24C317.939 56.4233 317.767 56.6763 317.481 56.999C317.202 57.3217 316.817 57.615 316.326 57.879C315.842 58.1357 315.27 58.264 314.61 58.264C313.774 58.264 313.015 58.066 312.333 57.67C311.658 57.274 311.119 56.7203 310.716 56.009C310.32 55.2903 310.122 54.4507 310.122 53.49C310.122 52.5293 310.32 51.6933 310.716 50.982C311.119 50.2633 311.658 49.706 312.333 49.31C313.015 48.9067 313.774 48.705 314.61 48.705C315.262 48.705 315.827 48.8223 316.304 49.057C316.788 49.2917 317.173 49.563 317.459 49.871C317.752 50.179 317.924 50.443 317.976 50.663V48.969H319.868V58H317.998ZM312.014 53.49C312.014 54.1427 312.157 54.7073 312.443 55.184C312.729 55.6607 313.099 56.031 313.554 56.295C314.016 56.5517 314.507 56.68 315.028 56.68C315.585 56.68 316.084 56.548 316.524 56.284C316.964 56.02 317.312 55.6497 317.569 55.173C317.825 54.689 317.954 54.128 317.954 53.49C317.954 52.852 317.825 52.2947 317.569 51.818C317.312 51.334 316.964 50.96 316.524 50.696C316.084 50.4247 315.585 50.289 315.028 50.289C314.507 50.289 314.016 50.421 313.554 50.685C313.099 50.949 312.729 51.3193 312.443 51.796C312.157 52.2727 312.014 52.8373 312.014 53.49ZM322.634 58V48.969H324.548V58H322.634ZM323.613 45.878C323.268 45.878 322.971 45.757 322.722 45.515C322.48 45.2657 322.359 44.9687 322.359 44.624C322.359 44.2793 322.48 43.9823 322.722 43.733C322.971 43.4837 323.268 43.359 323.613 43.359C323.84 43.359 324.049 43.4177 324.24 43.535C324.438 43.6523 324.596 43.8063 324.713 43.997C324.83 44.1803 324.889 44.3893 324.889 44.624C324.889 44.9687 324.764 45.2657 324.515 45.515C324.266 45.757 323.965 45.878 323.613 45.878ZM329.465 58H327.54V42.864H329.465V58ZM334.268 58.264C333.865 58.264 333.516 58.121 333.223 57.835C332.937 57.5417 332.794 57.1933 332.794 56.79C332.794 56.372 332.937 56.02 333.223 55.734C333.516 55.4407 333.865 55.294 334.268 55.294C334.686 55.294 335.038 55.4407 335.324 55.734C335.61 56.02 335.753 56.372 335.753 56.79C335.753 57.1933 335.61 57.5417 335.324 57.835C335.038 58.121 334.686 58.264 334.268 58.264ZM343.289 56.68C343.861 56.68 344.323 56.5883 344.675 56.405C345.027 56.2217 345.247 56.0897 345.335 56.009L346.27 57.384C346.197 57.45 346.021 57.5563 345.742 57.703C345.471 57.8423 345.119 57.9707 344.686 58.088C344.261 58.2053 343.777 58.264 343.234 58.264C342.406 58.264 341.636 58.0807 340.924 57.714C340.213 57.34 339.637 56.7973 339.197 56.086C338.765 55.3747 338.548 54.5057 338.548 53.479C338.548 52.445 338.765 51.576 339.197 50.872C339.637 50.1607 340.213 49.6217 340.924 49.255C341.636 48.8883 342.406 48.705 343.234 48.705C343.77 48.705 344.246 48.771 344.664 48.903C345.082 49.0277 345.427 49.167 345.698 49.321C345.97 49.475 346.149 49.5923 346.237 49.673L345.291 51.048C345.233 50.9893 345.119 50.9013 344.95 50.784C344.789 50.6593 344.569 50.5457 344.29 50.443C344.012 50.3403 343.678 50.289 343.289 50.289C342.82 50.289 342.362 50.4173 341.914 50.674C341.474 50.9233 341.111 51.2863 340.825 51.763C340.539 52.2397 340.396 52.8117 340.396 53.479C340.396 54.1463 340.539 54.722 340.825 55.206C341.111 55.6827 341.474 56.0493 341.914 56.306C342.362 56.5553 342.82 56.68 343.289 56.68ZM352.343 58.264C351.412 58.264 350.583 58.055 349.857 57.637C349.139 57.219 348.574 56.6543 348.163 55.943C347.753 55.2243 347.547 54.414 347.547 53.512C347.547 52.61 347.753 51.796 348.163 51.07C348.574 50.344 349.139 49.7683 349.857 49.343C350.583 48.9177 351.412 48.705 352.343 48.705C353.267 48.705 354.085 48.9177 354.796 49.343C355.515 49.7683 356.076 50.344 356.479 51.07C356.883 51.796 357.084 52.61 357.084 53.512C357.084 54.414 356.883 55.2243 356.479 55.943C356.076 56.6543 355.515 57.219 354.796 57.637C354.085 58.055 353.267 58.264 352.343 58.264ZM352.343 56.625C352.93 56.625 353.44 56.4893 353.872 56.218C354.312 55.9467 354.653 55.5763 354.895 55.107C355.137 54.6303 355.258 54.095 355.258 53.501C355.258 52.907 355.137 52.3717 354.895 51.895C354.653 51.4183 354.312 51.0407 353.872 50.762C353.44 50.4833 352.93 50.344 352.343 50.344C351.749 50.344 351.232 50.4833 350.792 50.762C350.352 51.0407 350.008 51.4183 349.758 51.895C349.516 52.3717 349.395 52.907 349.395 53.501C349.395 54.095 349.516 54.6303 349.758 55.107C350.008 55.5763 350.352 55.9467 350.792 56.218C351.232 56.4893 351.749 56.625 352.343 56.625ZM370.041 48.705C370.709 48.705 371.281 48.8517 371.757 49.145C372.234 49.431 372.597 49.871 372.846 50.465C373.103 51.059 373.231 51.818 373.231 52.742V58H371.339V53.127C371.339 52.1517 371.204 51.4183 370.932 50.927C370.661 50.4357 370.166 50.19 369.447 50.19C369.066 50.19 368.699 50.2963 368.347 50.509C368.003 50.7143 367.717 51.0333 367.489 51.466C367.269 51.8987 367.159 52.4523 367.159 53.127V58H365.377V53.127C365.377 52.1517 365.209 51.4183 364.871 50.927C364.534 50.4357 364.061 50.19 363.452 50.19C363.064 50.19 362.697 50.2927 362.352 50.498C362.015 50.696 361.74 51.0113 361.527 51.444C361.315 51.8767 361.208 52.4377 361.208 53.127V58H359.305V48.969H361.208V50.355C361.289 50.1277 361.461 49.8857 361.725 49.629C361.997 49.3723 362.341 49.156 362.759 48.98C363.185 48.7967 363.658 48.705 364.178 48.705C364.721 48.705 365.176 48.815 365.542 49.035C365.909 49.255 366.199 49.5263 366.411 49.849C366.624 50.1643 366.771 50.4687 366.851 50.762C366.954 50.4467 367.152 50.1313 367.445 49.816C367.739 49.4933 368.109 49.2293 368.556 49.024C369.004 48.8113 369.499 48.705 370.041 48.705Z" fill="#175574"/>
</g>
<defs>
<filter id="filter0_d_351_611" x="0" y="0" width="439.163" height="133" filterUnits="userSpaceOnUse" color-interpolation-filters="sRGB">
<feFlood flood-opacity="0" result="BackgroundImageFix"/>
<feColorMatrix in="SourceAlpha" type="matrix" values="0 0 0 0 0 0 0 0 0 0 0 0 0 0 0 0 0 0 127 0" result="hardAlpha"/>
<feOffset dy="14"/>
<feGaussianBlur stdDeviation="17"/>
<feComposite in2="hardAlpha" operator="out"/>
<feColorMatrix type="matrix" values="0 0 0 0 0 0 0 0 0 0 0 0 0 0 0 0 0 0 0.05 0"/>
<feBlend mode="normal" in2="BackgroundImageFix" result="effect1_dropShadow_351_611"/>
<feBlend mode="normal" in="SourceGraphic" in2="effect1_dropShadow_351_611" result="shape"/>
</filter>
<clipPath id="clip0_351_611">
<rect width="33.1625" height="25" fill="white" transform="translate(64 40)"/>
</clipPath>
</defs>
</svg>
