<svg width="85" height="85" viewBox="0 0 85 85" fill="none" xmlns="http://www.w3.org/2000/svg">
<rect width="85" height="85" rx="22.9119" fill="#D79442"/>
<g clip-path="url(#clip0_1179_1014)">
<path d="M28.4516 34.2897C28.6774 32.1812 27.1784 30.2859 25.1034 30.0564C23.0283 29.8269 21.1631 31.3501 20.9373 33.4586C20.7114 35.5671 22.2105 37.4624 24.2855 37.6919C26.3605 37.9214 28.2257 36.3982 28.4516 34.2897Z" fill="white"/>
<path d="M24.4684 53.0011H19.0598C17.7566 53.0011 16.7139 52.0741 16.4533 50.816L14.5636 40.0893C14.4332 39.3609 13.7816 38.8974 13.0648 39.0299C12.348 39.1623 11.8919 39.8244 12.0222 40.5528L13.9119 51.2133C14.3681 53.7956 16.5185 55.6496 19.0598 55.6496H23.5561V60.4833C23.5561 61.2116 24.1425 61.8076 24.8593 61.8076C25.5761 61.8076 26.1626 61.2116 26.1626 60.4833V54.7226C26.1626 53.7956 25.3806 53.0011 24.4684 53.0011Z" fill="white"/>
<path d="M28.7689 47.4406H25.3152L26.2275 43.2691L28.6385 44.4609C28.8992 44.5934 29.1598 44.6596 29.4205 44.6596H29.4857L33.1348 44.4609C34.1122 44.3947 34.829 43.6002 34.829 42.607C34.7639 41.6137 33.9819 40.8854 33.0045 40.8854L29.8115 41.0178C29.8115 41.0178 26.1623 39.0976 25.7062 38.9652C25.1849 38.8327 23.0997 38.3692 23.0997 38.3692C22.3829 38.2368 21.6009 38.3692 21.0144 38.7665C20.3628 39.1638 19.9718 39.826 19.7763 40.5543L18.2776 47.9703C18.0821 48.7649 18.3427 49.6257 18.7989 50.2878C19.3202 50.9499 20.1022 51.281 20.8841 51.281H26.9443C27.3353 51.281 27.6611 51.6121 27.6611 52.0094V59.6902C27.6611 60.8159 28.5082 61.6766 29.616 61.6766C30.7238 61.6766 31.5709 60.8159 31.5709 59.6902V50.2878C31.5709 48.6987 30.2676 47.4406 28.7689 47.4406Z" fill="white"/>
<path d="M61.5653 37.6785C63.6403 37.449 65.1394 35.5537 64.9135 33.4452C64.6877 31.3367 62.8224 29.8135 60.7474 30.043C58.6724 30.2725 57.1733 32.1678 57.3992 34.2763C57.625 36.3848 59.4903 37.908 61.5653 37.6785Z" fill="white"/>
<path d="M72.756 39.0299C72.0392 38.8974 71.3876 39.3609 71.2573 40.0893L69.3675 50.7498C69.172 52.0079 68.0643 52.9349 66.761 52.9349H61.3525C60.4402 52.9349 59.6582 53.7294 59.6582 54.6564V60.4171C59.6582 61.1454 60.2447 61.7414 60.9615 61.7414C61.6783 61.7414 62.2647 61.1454 62.2647 60.4171V55.5834H66.761C69.3024 55.5834 71.5179 53.7294 71.9089 51.1471L73.7986 40.4866C73.9941 39.8244 73.4728 39.1623 72.756 39.0299Z" fill="white"/>
<path d="M67.0879 50.3532C67.6092 49.6911 67.8047 48.8303 67.6744 48.0357L66.1756 40.6197C66.0453 39.8914 65.5892 39.2292 64.9375 38.832C64.2859 38.4347 63.5691 38.3022 62.8523 38.4347C62.8523 38.4347 60.7671 38.8982 60.2458 39.0306C59.7896 39.163 56.1405 41.0832 56.1405 41.0832L52.9475 40.9508C51.9701 40.8846 51.1881 41.6792 51.1229 42.6724C51.0578 43.6656 51.8397 44.4602 52.8172 44.5264L56.4663 44.725H56.5315C56.7921 44.725 57.0528 44.6588 57.3134 44.5264L59.7245 43.3345L60.6368 47.506H57.1831C55.6192 47.506 54.3811 48.7641 54.3811 50.3532V59.8881C54.3811 61.0137 55.2282 61.8745 56.336 61.8745C57.4438 61.8745 58.2909 61.0137 58.2909 59.8881V52.141C58.2909 51.7437 58.6167 51.4127 59.0077 51.4127H65.0679C65.7847 51.4127 66.5666 51.0154 67.0879 50.3532Z" fill="white"/>
<path d="M51.8377 45.9834H33.983C33.2662 45.9834 32.6797 46.5793 32.6797 47.3077C32.6797 48.036 33.2662 48.632 33.983 48.632H41.607V60.5505C41.607 61.2789 42.1935 61.8748 42.9103 61.8748C43.6271 61.8748 44.2136 61.2789 44.2136 60.5505V48.632H51.8377C52.5545 48.632 53.1409 48.036 53.1409 47.3077C53.1409 46.5793 52.5545 45.9834 51.8377 45.9834Z" fill="white"/>
<path d="M47.6666 31.9456C47.797 32.078 47.9924 32.1442 48.1879 32.1442C48.3834 32.1442 48.5789 32.078 48.7092 31.9456L51.5113 29.0984C51.7719 28.8335 51.7719 28.37 51.5113 28.1051C51.2506 27.8403 50.7945 27.8403 50.5338 28.1051L48.1879 30.4888L47.0802 29.3632C46.8195 29.0983 46.3634 29.0983 46.1027 29.3632C45.8421 29.6281 45.8421 30.0916 46.1027 30.3564L47.6666 31.9456Z" fill="white"/>
<path d="M32.55 34.197C32.6151 34.5281 32.3545 34.9253 32.159 35.3226C31.9635 35.6537 31.6377 36.1834 31.9635 36.6469C32.0938 36.7793 32.3545 36.9118 32.55 36.978H32.6151C33.2016 36.978 35.2217 36.3821 36.1991 35.6537C36.5901 35.7199 36.9811 35.7199 37.3721 35.7199C39.5876 35.7199 41.6077 34.8591 42.9109 33.5348C44.2142 34.8591 46.2343 35.7199 48.4498 35.7199C48.8408 35.7199 49.2318 35.7199 49.6227 35.6537C50.535 36.3821 51.4473 36.9118 52.2944 37.1766C52.4248 37.2428 52.5551 37.2428 52.6854 37.2428C52.7506 37.2428 52.8157 37.2428 52.8809 37.2428C53.2067 37.1766 53.5325 36.978 53.7932 36.7131C54.1842 36.2496 54.1842 35.5875 53.8583 35.0578C53.6629 34.7267 53.5325 34.4618 53.4022 34.0646C54.7706 32.9389 55.4874 31.4822 55.4874 29.8931C55.4874 26.6486 52.2944 24 48.3846 24C46.1691 24 44.149 24.8608 42.8458 26.1851C41.5425 24.8608 39.5224 24 37.3069 24C33.3971 24 30.2041 26.6486 30.2041 29.8931C30.2041 31.5484 31.0512 33.1376 32.55 34.197ZM43.758 27.3769C44.8007 26.2513 46.4949 25.4567 48.4498 25.4567C51.6428 25.4567 54.1842 27.4431 54.1842 29.8931C54.1842 31.1511 53.4674 32.343 52.2944 33.2038C52.0338 33.3362 51.9686 33.6673 52.0338 33.9321C52.1641 34.5943 52.4248 35.2564 52.8157 35.7861C52.0338 35.5213 51.2518 35.0578 50.3395 34.3294C50.2092 34.197 50.0789 34.197 49.8834 34.197C49.8182 34.197 49.8182 34.197 49.7531 34.197C49.2969 34.3294 48.9059 34.3294 48.4498 34.3294C46.4949 34.3294 44.8007 33.6011 43.758 32.4092C44.2142 31.6146 44.4748 30.7539 44.4748 29.8269C44.4748 28.8999 44.2142 28.1053 43.758 27.3769ZM37.4372 33.7335C36.9811 33.7335 36.6553 33.4024 36.6553 32.9389C36.6553 32.4754 36.9811 32.1444 37.4372 32.1444C37.8934 32.1444 38.2192 32.4754 38.2192 32.9389C38.2192 33.4024 37.8934 33.7335 37.4372 33.7335ZM37.3721 26.2513C38.2843 26.2513 39.0663 26.7148 39.4573 27.5094C39.8483 28.2377 39.7831 29.0985 39.2618 29.7606C38.936 30.1579 38.6753 30.4228 38.4147 30.5552C38.154 30.7539 38.0237 30.8201 38.0237 31.2174C38.0237 31.416 37.8282 31.5484 37.6979 31.5484H37.1766C36.9811 31.5484 36.7856 31.3498 36.8507 31.1511C36.9159 30.1579 37.3069 29.8269 37.763 29.4958C37.9585 29.3634 38.0889 29.2309 38.2843 28.9661C38.4798 28.7012 38.4798 28.3701 38.3495 28.1053C38.2192 27.9066 38.0237 27.5756 37.3721 27.5756C36.5901 27.5756 36.3294 28.1053 36.2643 28.5026C36.2643 28.7012 36.0688 28.8336 35.9385 28.8336H35.352C35.1565 28.8336 34.961 28.635 35.0262 28.4364C35.1565 27.2445 35.9385 26.2513 37.3721 26.2513Z" fill="white"/>
</g>
<defs>
<clipPath id="clip0_1179_1014">
<rect width="62" height="63" fill="white" transform="translate(11.5 11)"/>
</clipPath>
</defs>
</svg>
