<svg width="85" height="85" viewBox="0 0 85 85" fill="none" xmlns="http://www.w3.org/2000/svg">
<g clip-path="url(#clip0_1210_1144)">
<rect width="85" height="85" rx="20" fill="#ABE0F8"/>
<path d="M37.5446 53.1276C37.1499 52.6249 36.8665 52.0442 36.7131 51.4239C36.5596 50.8035 36.5396 50.1577 36.6543 49.529C35.9901 49.6296 35.3117 49.582 34.668 49.3897C34.0242 49.1975 33.431 48.8652 32.9306 48.4168C32.4303 47.9684 32.0353 47.4149 31.774 46.796C31.5126 46.177 31.3913 45.508 31.4188 44.8367L30.9813 45.2742L24.252 61.8334L40.7281 55.0211L41.0526 54.6967C40.3867 54.7216 39.724 54.5931 39.1157 54.321C38.5074 54.0489 37.9698 53.6406 37.5446 53.1276Z" fill="white"/>
<path d="M45.5254 50.2228C47.0866 48.6684 50.2039 45.5528 51.7719 43.9838L58.5766 37.1715L54.0049 32.532L37.4835 49.2345C37.2836 49.8661 37.2605 50.5404 37.4168 51.1842C37.5731 51.828 37.9028 52.4167 38.3701 52.8863C38.8374 53.3559 39.4245 53.6886 40.0675 53.8481C40.7105 54.0076 41.3849 53.9878 42.0175 53.791C42.0353 53.7303 42.0691 53.6756 42.1155 53.6326L45.4424 50.3057C45.4662 50.2744 45.4941 50.2465 45.5254 50.2228Z" fill="white"/>
<path d="M63.7242 31.4836L54.528 22.2799C54.4547 22.2074 54.3558 22.1667 54.2527 22.1667C54.1496 22.1667 54.0506 22.2074 53.9773 22.2799L49.4434 26.8139C51.8589 29.2651 56.7002 34.1853 59.1148 36.6362L63.7242 32.0268C63.7601 31.9912 63.7885 31.9489 63.808 31.9023C63.8274 31.8557 63.8374 31.8057 63.8374 31.7552C63.8374 31.7047 63.8274 31.6547 63.808 31.6081C63.7885 31.5615 63.7601 31.5192 63.7242 31.4836Z" fill="white"/>
<path d="M33.3714 42.8825L32.3228 43.9311C32.1311 44.5786 32.1149 45.2654 32.2759 45.9212C32.4369 46.577 32.7692 47.1782 33.239 47.6633C33.7087 48.1483 34.2989 48.4999 34.9492 48.6819C35.5995 48.8639 36.2864 48.8698 36.9397 48.699L53.4763 31.9965L48.9046 27.3494C47.3323 28.9263 43.9544 32.2962 42.4167 33.8372C40.6123 35.6414 35.0868 41.1676 33.3714 42.8825Z" fill="white"/>
<path d="M27.3134 36.1835C27.4705 36.2038 27.6186 36.2685 27.7402 36.3701C27.8618 36.4716 27.9519 36.6058 27.9999 36.7568C28.111 37.492 28.9984 38.2423 28.4601 38.9672L26.8003 41.072C26.7941 41.077 26.789 41.0833 26.7855 41.0905C26.7821 41.0976 26.7802 41.1055 26.7802 41.1135C26.7802 41.1215 26.7821 41.1294 26.7855 41.1365C26.789 41.1437 26.7941 41.15 26.8003 41.155L29.1843 43.5389C29.2069 43.5691 29.2447 43.5616 29.2748 43.5389L31.3796 41.8717C31.5051 41.772 31.6573 41.7116 31.817 41.6982C31.9768 41.6848 32.1369 41.7189 32.2773 41.7963C32.5239 41.9328 32.7813 42.0489 33.0468 42.1433L34.8876 40.3025C27.5528 38.6147 28.6493 27.9705 36.2079 27.8021C37.6528 27.8088 39.0524 28.3068 40.1766 29.2145C41.3008 30.1221 42.0828 31.3852 42.3939 32.7962L44.2271 30.963C44.1283 30.6943 44.0124 30.4323 43.88 30.1785C43.8047 30.0402 43.7716 29.8827 43.785 29.7258C43.7985 29.5689 43.8577 29.4193 43.9555 29.2958L45.6303 27.1835C45.6395 27.1702 45.6445 27.1544 45.6445 27.1382C45.6445 27.122 45.6395 27.1062 45.6303 27.0929L43.2464 24.709C43.2353 24.6981 43.2204 24.692 43.2049 24.692C43.1893 24.692 43.1744 24.6981 43.1634 24.709L41.051 26.3762C40.3401 26.9042 39.5766 26.0314 38.8406 25.9086C38.6913 25.8637 38.5582 25.7763 38.4578 25.6571C38.3573 25.5378 38.2937 25.3919 38.2748 25.2371L37.9655 22.5589C37.9622 22.5415 37.9527 22.5259 37.9389 22.5148C37.9251 22.5038 37.9078 22.498 37.8901 22.4986H34.5405C34.5209 22.4981 34.5017 22.5046 34.4864 22.5171C34.4712 22.5295 34.4609 22.5471 34.4576 22.5664L34.1558 25.2295C34.1353 25.3857 34.0704 25.5327 33.9688 25.6531C33.8671 25.7735 33.7331 25.8621 33.5825 25.9084C32.8132 26.0413 32.1007 26.9077 31.3721 26.3688L29.2673 24.709C29.2618 24.7035 29.2554 24.6992 29.2482 24.6962C29.2411 24.6933 29.2335 24.6917 29.2258 24.6917C29.2181 24.6917 29.2104 24.6933 29.2033 24.6962C29.1962 24.6992 29.1897 24.7035 29.1843 24.709L26.8003 27.0929C26.7884 27.103 26.7809 27.1173 26.7795 27.1329C26.7781 27.1484 26.7829 27.1639 26.7928 27.1759L28.46 29.2882C28.9933 30.0077 28.121 30.7269 28 31.4987C27.9535 31.6485 27.8646 31.7816 27.7441 31.882C27.6236 31.9824 27.4766 32.0458 27.3209 32.0644L24.6428 32.3737C24.6268 32.3786 24.613 32.3887 24.6034 32.4024C24.5938 32.4161 24.5891 32.4325 24.5899 32.4492V35.8063C24.5892 35.824 24.5949 35.8415 24.606 35.8553C24.6171 35.8692 24.6328 35.8786 24.6503 35.8818L27.3134 36.1835Z" fill="white"/>
<path d="M36.2084 28.5566C34.7912 28.5591 33.4282 29.1017 32.397 30.074C31.3659 31.0463 30.7442 32.3751 30.6586 33.7898C30.573 35.2045 31.03 36.5986 31.9363 37.6881C32.8427 38.7776 34.1304 39.4806 35.537 39.6539L41.7382 33.4527C41.5685 32.1042 40.9137 30.8635 39.8961 29.9625C38.8784 29.0615 37.5676 28.5618 36.2084 28.5566Z" fill="white"/>
<path d="M56.6402 54.146C56.6846 54.0102 56.7661 53.8895 56.8753 53.7976C56.9846 53.7056 57.1174 53.646 57.2588 53.6254L59.3712 53.384L59.356 50.7436L57.2588 50.5248C57.1193 50.5046 56.9882 50.4458 56.8803 50.3552C56.7723 50.2646 56.6918 50.1457 56.6477 50.0118C56.537 49.4117 55.8461 48.765 56.2931 48.1862L57.6134 46.5189L55.7274 44.6631L54.0903 45.9908C53.978 46.079 53.8421 46.1318 53.6997 46.1426C53.5573 46.1533 53.4149 46.1215 53.2907 46.0512C52.8118 45.718 51.8713 45.7657 51.7743 45.0478L49.8279 46.9942C56.8252 46.7544 57.1908 56.8937 50.205 57.1711C49.5048 57.1693 48.8123 57.0237 48.1707 56.7431C47.5291 56.4626 46.952 56.0532 46.4752 55.5403C45.9984 55.0274 45.6321 54.422 45.3991 53.7617C45.166 53.1014 45.0712 52.4002 45.1205 51.7016L43.1892 53.6329C43.3217 53.657 43.4452 53.7168 43.5462 53.8058C43.6473 53.8949 43.7221 54.0099 43.7625 54.1384C43.8707 54.7386 44.5781 55.4 44.1096 55.9716L42.7969 57.6313L44.6829 59.4871L46.3199 58.1594C46.9164 57.7198 47.5322 58.406 48.1456 58.5139C48.2795 58.5567 48.3983 58.637 48.4879 58.7454C48.5775 58.8537 48.6341 58.9855 48.6511 59.125L48.8925 61.2449L51.5329 61.2298L51.7667 59.125C51.7809 58.9845 51.8365 58.8514 51.9265 58.7426C52.0165 58.6338 52.1368 58.5542 52.2722 58.514C52.8686 58.411 53.491 57.7162 54.0903 58.1593L55.7651 59.4796L57.6209 57.6011L56.2931 55.9565C55.8339 55.4001 56.5486 54.7185 56.6402 54.146Z" fill="white"/>
<path d="M46.0715 50.7588C45.8682 51.4092 45.8203 52.0983 45.9316 52.7706C46.0429 53.4429 46.3103 54.0797 46.7123 54.6299C47.1143 55.1802 47.6398 55.6284 48.2465 55.9388C48.8532 56.2491 49.5242 56.4128 50.2056 56.4168C55.9434 56.2279 55.9498 47.919 50.2055 47.7337C49.7507 47.7311 49.2989 47.8077 48.8703 47.96C48.8627 47.9676 46.0754 50.755 46.0715 50.7588Z" fill="white"/>
<path d="M48.2852 47.5452L48.3078 47.4773C48.2896 47.4924 48.2909 47.5231 48.2852 47.5452Z" fill="white"/>
</g>
<defs>
<clipPath id="clip0_1210_1144">
<rect width="85" height="85" fill="white"/>
</clipPath>
</defs>
</svg>
