<svg width="85" height="85" viewBox="0 0 85 85" fill="none" xmlns="http://www.w3.org/2000/svg">
<g clip-path="url(#clip0_1210_1175)">
<rect width="85" height="85" rx="20" fill="#007AFF"/>
<path d="M28.1426 44.6917C28.1428 44.8935 28.223 45.0869 28.3657 45.2295C28.5084 45.3722 28.7018 45.4525 28.9035 45.4527H31.1864V27.1897H28.1426V44.6917Z" fill="white"/>
<path d="M66.1933 63.7155C66.4943 63.7155 66.7886 63.6262 67.0389 63.459C67.2891 63.2918 67.4842 63.0541 67.5994 62.776C67.7146 62.4979 67.7448 62.1919 67.686 61.8966C67.6273 61.6014 67.4823 61.3302 67.2695 61.1174L62.8614 56.7092L60.709 58.8616L65.117 63.2697C65.258 63.4115 65.4258 63.5239 65.6105 63.6004C65.7953 63.6769 65.9933 63.716 66.1933 63.7155Z" fill="white"/>
<path d="M38.0396 42.4088H39.4535C39.841 41.317 40.3927 40.2906 41.0895 39.365H41.0834C40.8816 39.365 40.6881 39.2848 40.5453 39.1421C40.4026 38.9994 40.3225 38.8059 40.3225 38.6041C40.3225 38.4022 40.4026 38.2087 40.5453 38.066C40.6881 37.9233 40.8816 37.8431 41.0834 37.8431H42.4635C43.0918 37.2605 43.7834 36.75 44.5252 36.3212H41.0834C40.8816 36.3212 40.6881 36.241 40.5453 36.0983C40.4026 35.9556 40.3225 35.762 40.3225 35.5602C40.3225 35.3584 40.4026 35.1649 40.5453 35.0222C40.6881 34.8794 40.8816 34.7993 41.0834 34.7993H45.6492C45.8326 34.7995 46.0098 34.8659 46.1482 34.9864C46.2865 35.1069 46.3767 35.2733 46.402 35.455C48.1758 34.8259 50.0778 34.6457 51.9382 34.9307C53.7985 35.2156 55.5594 35.9567 57.0635 37.0879V27.1897H32.7129V45.4527H38.8265C38.86 44.9414 38.928 44.4329 39.0301 43.9308H38.0396C37.8378 43.9308 37.6442 43.8506 37.5015 43.7079C37.3588 43.5652 37.2786 43.3716 37.2786 43.1698C37.2786 42.968 37.3588 42.7744 37.5015 42.6317C37.6442 42.489 37.8378 42.4088 38.0396 42.4088ZM34.9958 43.9308C34.8453 43.9308 34.6981 43.8861 34.573 43.8025C34.4479 43.7189 34.3503 43.6001 34.2927 43.461C34.2351 43.322 34.2201 43.169 34.2494 43.0213C34.2788 42.8737 34.3513 42.7381 34.4577 42.6317C34.5641 42.5253 34.6997 42.4528 34.8473 42.4235C34.9949 42.3941 35.1479 42.4092 35.287 42.4668C35.426 42.5244 35.5449 42.6219 35.6285 42.747C35.7121 42.8722 35.7567 43.0193 35.7567 43.1698C35.7567 43.3716 35.6765 43.5652 35.5338 43.7079C35.3911 43.8506 35.1976 43.9308 34.9958 43.9308ZM34.9958 39.365C34.8453 39.365 34.6981 39.3204 34.573 39.2368C34.4479 39.1532 34.3503 39.0343 34.2927 38.8953C34.2351 38.7562 34.2201 38.6032 34.2494 38.4556C34.2788 38.308 34.3513 38.1724 34.4577 38.066C34.5641 37.9596 34.6997 37.8871 34.8473 37.8577C34.9949 37.8284 35.1479 37.8434 35.287 37.901C35.426 37.9586 35.5449 38.0562 35.6285 38.1813C35.7121 38.3064 35.7567 38.4536 35.7567 38.6041C35.7567 38.8059 35.6765 38.9994 35.5338 39.1421C35.3911 39.2848 35.1976 39.365 34.9958 39.365ZM34.9958 36.3212C34.8453 36.3212 34.6981 36.2766 34.573 36.1929C34.4479 36.1093 34.3503 35.9905 34.2927 35.8514C34.2351 35.7124 34.2201 35.5594 34.2494 35.4118C34.2788 35.2642 34.3513 35.1286 34.4577 35.0222C34.5641 34.9157 34.6997 34.8433 34.8473 34.8139C34.9949 34.7845 35.1479 34.7996 35.287 34.8572C35.426 34.9148 35.5449 35.0123 35.6285 35.1375C35.7121 35.2626 35.7567 35.4097 35.7567 35.5602C35.7567 35.762 35.6765 35.9556 35.5338 36.0983C35.3911 36.241 35.1976 36.3212 34.9958 36.3212ZM34.9958 33.2774C34.8453 33.2774 34.6981 33.2327 34.573 33.1491C34.4479 33.0655 34.3503 32.9467 34.2927 32.8076C34.2351 32.6686 34.2201 32.5156 34.2494 32.3679C34.2788 32.2203 34.3513 32.0847 34.4577 31.9783C34.5641 31.8719 34.6997 31.7994 34.8473 31.7701C34.9949 31.7407 35.1479 31.7558 35.287 31.8134C35.426 31.871 35.5449 31.9685 35.6285 32.0936C35.7121 32.2188 35.7567 32.3659 35.7567 32.5164C35.7567 32.7182 35.6765 32.9118 35.5338 33.0545C35.3911 33.1972 35.1976 33.2774 34.9958 33.2774ZM34.9958 30.2335C34.8453 30.2335 34.6981 30.1889 34.573 30.1053C34.4479 30.0217 34.3503 29.9028 34.2927 29.7638C34.2351 29.6247 34.2201 29.4717 34.2494 29.3241C34.2788 29.1765 34.3513 29.0409 34.4577 28.9345C34.5641 28.8281 34.6997 28.7556 34.8473 28.7262C34.9949 28.6969 35.1479 28.7119 35.287 28.7695C35.426 28.8271 35.5449 28.9247 35.6285 29.0498C35.7121 29.1749 35.7567 29.3221 35.7567 29.4726C35.7567 29.6744 35.6765 29.8679 35.5338 30.0106C35.3911 30.1534 35.1976 30.2335 34.9958 30.2335ZM48.693 31.7554H54.7807C54.9825 31.7554 55.176 31.8356 55.3187 31.9783C55.4614 32.121 55.5416 32.3146 55.5416 32.5164C55.5416 32.7182 55.4614 32.9118 55.3187 33.0545C55.176 33.1972 54.9825 33.2774 54.7807 33.2774H48.693C48.4912 33.2774 48.2976 33.1972 48.1549 33.0545C48.0122 32.9118 47.932 32.7182 47.932 32.5164C47.932 32.3146 48.0122 32.121 48.1549 31.9783C48.2976 31.8356 48.4912 31.7554 48.693 31.7554ZM38.0396 28.7116H39.5615C39.7633 28.7116 39.9569 28.7918 40.0996 28.9345C40.2423 29.0772 40.3225 29.2708 40.3225 29.4726C40.3225 29.6744 40.2423 29.8679 40.0996 30.0106C39.9569 30.1534 39.7633 30.2335 39.5615 30.2335H38.0396C37.8378 30.2335 37.6442 30.1534 37.5015 30.0106C37.3588 29.8679 37.2786 29.6744 37.2786 29.4726C37.2786 29.2708 37.3588 29.0772 37.5015 28.9345C37.6442 28.7918 37.8378 28.7116 38.0396 28.7116ZM38.0396 31.7554H45.6492C45.851 31.7554 46.0445 31.8356 46.1873 31.9783C46.33 32.121 46.4101 32.3146 46.4101 32.5164C46.4101 32.7182 46.33 32.9118 46.1873 33.0545C46.0445 33.1972 45.851 33.2774 45.6492 33.2774H38.0396C37.8378 33.2774 37.6442 33.1972 37.5015 33.0545C37.3588 32.9118 37.2786 32.7182 37.2786 32.5164C37.2786 32.3146 37.3588 32.121 37.5015 31.9783C37.6442 31.8356 37.8378 31.7554 38.0396 31.7554Z" fill="white"/>
<path d="M25.1016 48.4965H39.0283C38.9263 47.9943 38.8583 47.4859 38.8248 46.9746H28.9064C28.3011 46.9739 27.7208 46.7332 27.2929 46.3052C26.8649 45.8772 26.6242 45.2969 26.6235 44.6917V27.3206C26.1787 27.4784 25.7937 27.7699 25.5213 28.1552C25.2488 28.5405 25.1022 29.0006 25.1016 29.4725V48.4965Z" fill="white"/>
<path d="M57.059 21.863C57.0587 21.6613 56.9785 21.4678 56.8358 21.3252C56.6932 21.1825 56.4998 21.1023 56.298 21.1021H28.9035C28.7018 21.1023 28.5084 21.1825 28.3657 21.3252C28.223 21.4678 28.1428 21.6613 28.1426 21.863V25.6678H57.059V21.863ZM30.4255 24.1459C30.2749 24.1459 30.1278 24.1013 30.0027 24.0176C29.8775 23.934 29.78 23.8152 29.7224 23.6761C29.6648 23.5371 29.6498 23.3841 29.6791 23.2365C29.7085 23.0889 29.781 22.9533 29.8874 22.8468C29.9938 22.7404 30.1294 22.6679 30.277 22.6386C30.4246 22.6092 30.5776 22.6243 30.7167 22.6819C30.8557 22.7395 30.9745 22.837 31.0582 22.9622C31.1418 23.0873 31.1864 23.2344 31.1864 23.3849C31.1864 23.5867 31.1062 23.7803 30.9635 23.923C30.8208 24.0657 30.6273 24.1459 30.4255 24.1459ZM33.4693 24.1459C33.3188 24.1459 33.1717 24.1013 33.0465 24.0176C32.9214 23.934 32.8238 23.8152 32.7662 23.6761C32.7087 23.5371 32.6936 23.3841 32.7229 23.2365C32.7523 23.0889 32.8248 22.9533 32.9312 22.8468C33.0376 22.7404 33.1732 22.6679 33.3208 22.6386C33.4684 22.6092 33.6214 22.6243 33.7605 22.6819C33.8995 22.7395 34.0184 22.837 34.102 22.9622C34.1856 23.0873 34.2302 23.2344 34.2302 23.3849C34.2302 23.5867 34.1501 23.7803 34.0074 23.923C33.8647 24.0657 33.6711 24.1459 33.4693 24.1459ZM36.5131 24.1459C36.3626 24.1459 36.2155 24.1013 36.0903 24.0176C35.9652 23.934 35.8677 23.8152 35.8101 23.6761C35.7525 23.5371 35.7374 23.3841 35.7668 23.2365C35.7961 23.0889 35.8686 22.9533 35.975 22.8468C36.0815 22.7404 36.217 22.6679 36.3647 22.6386C36.5123 22.6092 36.6653 22.6243 36.8043 22.6819C36.9434 22.7395 37.0622 22.837 37.1458 22.9622C37.2294 23.0873 37.2741 23.2344 37.2741 23.3849C37.2741 23.5867 37.1939 23.7803 37.0512 23.923C36.9085 24.0657 36.7149 24.1459 36.5131 24.1459Z" fill="white"/>
<path d="M58.584 27.3203V38.462C59.1666 39.0903 59.6771 39.7818 60.1059 40.5237V29.4723C60.1053 29.0004 59.9587 28.5402 59.6862 28.155C59.4137 27.7697 59.0287 27.4781 58.584 27.3203Z" fill="white"/>
<path d="M25.1016 52.3014C25.1022 52.9067 25.343 53.4869 25.771 53.9149C26.1989 54.3429 26.7792 54.5836 27.3844 54.5843H42.4619C41.1043 53.3279 40.0715 51.7613 39.4517 50.0186H25.1016V52.3014Z" fill="white"/>
<path d="M58.859 53.6553C58.4872 54.0868 58.0839 54.4902 57.6523 54.862L60.1041 57.3138L61.3108 56.1071L58.859 53.6553Z" fill="white"/>
<path d="M50.2128 36.3213C48.2562 36.3213 46.3436 36.9015 44.7168 37.9885C43.09 39.0755 41.8221 40.6205 41.0733 42.4281C40.3246 44.2357 40.1287 46.2247 40.5104 48.1437C40.8921 50.0626 41.8343 51.8253 43.2177 53.2088C44.6012 54.5922 46.3639 55.5344 48.2828 55.9161C50.2018 56.2978 52.1908 56.1019 53.9984 55.3532C55.8061 54.6044 57.351 53.3365 58.438 51.7097C59.525 50.0829 60.1052 48.1703 60.1052 46.2137C60.1022 43.591 59.0591 41.0766 57.2045 39.222C55.35 37.3675 52.8355 36.3243 50.2128 36.3213ZM50.2128 54.5843C48.5572 54.5843 46.9389 54.0933 45.5623 53.1736C44.1858 52.2538 43.1129 50.9465 42.4794 49.417C41.8459 47.8875 41.6801 46.2045 42.0031 44.5807C42.326 42.957 43.1233 41.4655 44.2939 40.2949C45.4645 39.1242 46.956 38.327 48.5798 38.004C50.2035 37.6811 51.8865 37.8468 53.416 38.4804C54.9455 39.1139 56.2528 40.1868 57.1726 41.5633C58.0924 42.9398 58.5833 44.5582 58.5833 46.2137C58.5808 48.433 57.6981 50.5606 56.1288 52.1298C54.5596 53.6991 52.432 54.5818 50.2128 54.5843Z" fill="white"/>
<path d="M50.2158 39.365C48.8613 39.365 47.5372 39.7667 46.4109 40.5192C45.2847 41.2717 44.4069 42.3413 43.8885 43.5928C43.3702 44.8442 43.2345 46.2212 43.4988 47.5497C43.763 48.8782 44.4153 50.0985 45.3731 51.0563C46.3309 52.0141 47.5512 52.6664 48.8797 52.9306C50.2082 53.1949 51.5852 53.0593 52.8367 52.5409C54.0881 52.0225 55.1577 51.1447 55.9102 50.0185C56.6628 48.8922 57.0644 47.5681 57.0644 46.2136C57.0624 44.3979 56.3402 42.6571 55.0563 41.3732C53.7723 40.0892 52.0316 39.367 50.2158 39.365ZM53.1793 43.5101L50.1354 49.5978C50.0758 49.717 49.9859 49.8184 49.8748 49.892C49.7637 49.9655 49.6351 50.0086 49.5021 50.0169C49.4863 50.0179 49.4705 50.0184 49.4546 50.0184C49.3293 50.0184 49.206 49.9874 49.0956 49.9283C48.9852 49.8692 48.891 49.7838 48.8215 49.6796L47.2996 47.3967C47.2436 47.3136 47.2045 47.2202 47.1846 47.1219C47.1648 47.0236 47.1645 46.9224 47.1839 46.824C47.2033 46.7256 47.242 46.632 47.2976 46.5486C47.3533 46.4653 47.4249 46.3937 47.5083 46.3381C47.5918 46.2824 47.6854 46.2438 47.7838 46.2245C47.8822 46.2052 47.9834 46.2055 48.0817 46.2254C48.1799 46.2453 48.2733 46.2845 48.3564 46.3406C48.4395 46.3967 48.5107 46.4687 48.5659 46.5524L49.3605 47.7443L51.8179 42.8294C51.8621 42.7393 51.9238 42.6587 51.9992 42.5925C52.0747 42.5263 52.1626 42.4756 52.2577 42.4435C52.3529 42.4114 52.4535 42.3984 52.5537 42.4053C52.6538 42.4123 52.7517 42.439 52.8415 42.4839C52.9313 42.5288 53.0114 42.591 53.077 42.667C53.1427 42.743 53.1926 42.8313 53.224 42.9267C53.2554 43.0221 53.2676 43.1228 53.2599 43.2229C53.2521 43.323 53.2247 43.4206 53.1791 43.5101H53.1793Z" fill="white"/>
<path d="M39.3934 56.106L38.252 60.6717H46.9562L45.9931 56.8188C45.4869 56.6166 44.996 56.3784 44.524 56.106H39.3934Z" fill="white"/>
<path d="M50.9717 62.1938H34.2306C33.7586 62.1944 33.2984 62.341 32.913 62.6135C32.5276 62.8859 32.236 63.271 32.0781 63.7158H53.1241C52.9662 63.271 52.6746 62.8859 52.2892 62.6135C51.9039 62.341 51.4436 62.1944 50.9717 62.1938Z" fill="white"/>
</g>
<defs>
<clipPath id="clip0_1210_1175">
<rect width="85" height="85" fill="white"/>
</clipPath>
</defs>
</svg>
