<svg xmlns="http://www.w3.org/2000/svg" width="68" height="22" viewBox="0 0 68 22" fill="none">
    <g clip-path="url(#clip0_761_482)">
      <path d="M19.674 15.1784C19.5789 14.9114 19.4677 14.6531 19.362 14.4138C19.199 14.0479 19.033 13.6833 18.8639 13.3202L18.8507 13.2918C17.3568 10.0595 15.7926 6.86025 14.1591 3.69625L14.0892 3.56104C13.9194 3.22916 13.7466 2.89881 13.5708 2.57003C13.3599 2.15207 13.1041 1.75835 12.8078 1.39587C12.4742 0.997925 12.0573 0.677989 11.5867 0.458599C11.1157 0.239119 10.6024 0.12542 10.0829 0.125488C9.5633 0.125557 9.05005 0.239391 8.57917 0.458995C8.10855 0.678487 7.6918 0.998514 7.35827 1.39653C7.06244 1.75909 6.80684 2.15269 6.59596 2.57042C6.41861 2.90224 6.24421 3.23563 6.07279 3.57054L6.00809 3.69599C4.37459 6.86015 2.8103 10.0596 1.31634 13.292L1.29495 13.3382C1.12876 13.6953 0.965504 14.0539 0.805184 14.4137C0.699547 14.6528 0.588496 14.911 0.49329 15.1786C0.220563 15.9076 0.133614 16.6931 0.240289 17.4641C0.353581 18.2435 0.668776 18.9798 1.15458 19.5997C1.64074 20.2201 2.28048 20.7029 3.0105 21.0002C3.56219 21.2234 4.15192 21.3374 4.74704 21.3361C4.93402 21.3361 5.12087 21.3251 5.30666 21.3035C6.05927 21.2076 6.78523 20.9627 7.44212 20.583C8.30346 20.0991 9.15423 19.3899 10.0836 18.3764C11.0129 19.3899 11.8636 20.0991 12.725 20.5829C13.3819 20.9627 14.1079 21.2076 14.8605 21.3035C15.0463 21.3252 15.2331 21.3361 15.4201 21.3361C16.0152 21.3374 16.605 21.2233 17.1565 21.0002C17.8866 20.7029 18.5264 20.2201 19.0126 19.5997C19.4984 18.9798 19.8136 18.2435 19.9269 17.4641C20.0334 16.693 19.9466 15.9075 19.674 15.1784ZM10.0836 16.2832C8.93305 14.8249 8.19491 13.4706 7.93584 12.3354C7.82968 11.91 7.8046 11.4685 7.86189 11.0338C7.90721 10.7151 8.02428 10.4108 8.20429 10.144C8.42596 9.85656 8.71066 9.6239 9.03645 9.46392C9.36239 9.30395 9.72066 9.22079 10.0837 9.22084C10.4468 9.22088 10.8051 9.30413 11.131 9.46418C11.4567 9.62418 11.7414 9.85684 11.963 10.1442C12.143 10.4112 12.2601 10.7155 12.3054 11.0342C12.3626 11.469 12.3375 11.9107 12.2312 12.3362C11.9718 13.4714 11.2338 14.8253 10.0836 16.2832ZM18.5832 17.2721C18.5039 17.817 18.2836 18.3317 17.9439 18.7652C17.604 19.199 17.1566 19.5366 16.6462 19.7444C16.1298 19.9513 15.5695 20.0246 15.0172 19.9575C14.4433 19.8836 13.8901 19.6947 13.3908 19.402C12.624 18.9713 11.8479 18.31 10.9744 17.3398C12.3648 15.6255 13.2332 14.0453 13.5546 12.6377C13.6992 12.0459 13.7306 11.4321 13.647 10.8286C13.5712 10.3086 13.3782 9.81261 13.0826 9.37809C12.7361 8.90904 12.2843 8.52789 11.7636 8.26533C11.2426 8.00261 10.6672 7.86576 10.0837 7.86576C9.5002 7.86576 8.92483 8.00261 8.40381 8.26533C7.88305 8.52776 7.4312 8.90882 7.08467 9.37782C6.78918 9.81219 6.5962 10.308 6.5203 10.8278C6.43666 11.4311 6.46784 12.0447 6.6122 12.6363C6.93347 14.0444 7.80181 15.6251 9.19266 17.34C8.3193 18.31 7.54313 18.9713 6.77634 19.4022C6.27706 19.6948 5.72389 19.8837 5.14992 19.9575C4.59761 20.0246 4.03732 19.9513 3.52086 19.7444C3.01046 19.5366 2.56317 19.1991 2.22323 18.7653C1.88363 18.3318 1.6633 17.8171 1.58413 17.2721C1.50805 16.7183 1.57281 16.1542 1.77243 15.6321C1.84822 15.4187 1.93709 15.2095 2.04708 14.9608C2.20441 14.6077 2.36459 14.256 2.5276 13.9056L2.54899 13.8591C4.03477 10.6447 5.59047 7.46314 7.21499 4.31661L7.27996 4.1905C7.44634 3.86791 7.61827 3.53423 7.79178 3.2119C7.95779 2.87959 8.15871 2.56588 8.39114 2.27609C8.59742 2.02734 8.85601 1.82712 9.14849 1.68969C9.44098 1.55226 9.76016 1.48099 10.0833 1.48097C10.4065 1.48094 10.7257 1.55216 11.0182 1.68954C11.3107 1.82693 11.5693 2.02711 11.7756 2.27583C12.0082 2.56538 12.2092 2.87897 12.3751 3.21124C12.5469 3.5308 12.7174 3.86144 12.8823 4.18113L12.9523 4.31674C14.5769 7.46327 16.1325 10.6449 17.6182 13.8594L17.6314 13.8879C17.7938 14.2395 17.9619 14.6029 18.1201 14.9609C18.2302 15.2099 18.3192 15.4194 18.3949 15.632C18.5944 16.1541 18.6591 16.7182 18.5832 17.272V17.2721ZM27.8255 16.1125C27.296 16.1125 26.8087 16.0064 26.3637 15.7941C25.9188 15.5818 25.5375 15.2844 25.1986 14.9024C24.8596 14.5203 24.6054 14.0745 24.4146 13.586C24.2239 13.0765 24.1392 12.5244 24.1392 11.93C24.1392 11.3356 24.2452 10.7622 24.4359 10.2526C24.6265 9.7432 24.902 9.29728 25.241 8.89387C25.5799 8.51173 25.9824 8.19323 26.4485 7.9809C26.9146 7.76857 27.4019 7.66241 27.9528 7.66241C28.4823 7.66241 28.9484 7.76857 29.3723 8.00216C29.796 8.21449 30.135 8.53299 30.4103 8.93626L30.474 7.896H32.423V15.9003H30.474L30.4103 14.7326C30.135 15.1571 29.7748 15.4969 29.3087 15.7516C28.8849 15.9853 28.3764 16.1126 27.8256 16.1126L27.8255 16.1125ZM28.3341 14.2018C28.7155 14.2018 29.0545 14.0956 29.3723 13.9045C29.6689 13.6922 29.9018 13.4162 30.0926 13.0766C30.262 12.7368 30.3468 12.3334 30.3468 11.8875C30.3468 11.4416 30.262 11.0382 30.0926 10.6986C29.9231 10.3588 29.6687 10.0828 29.3723 9.87062C29.0756 9.65816 28.7155 9.57325 28.3341 9.57325C27.9528 9.57325 27.6138 9.67942 27.296 9.87049C26.9994 10.0828 26.7664 10.3588 26.5757 10.6984C26.4061 11.0382 26.3214 11.4416 26.3214 11.8875C26.3214 12.3334 26.4061 12.7368 26.5757 13.0765C26.7451 13.4162 26.9994 13.6922 27.296 13.9044C27.6138 14.0956 27.9528 14.2018 28.3341 14.2018ZM35.7494 5.7303C35.7494 5.96389 35.707 6.17622 35.6009 6.34603C35.4912 6.52313 35.3381 6.66929 35.1561 6.7707C34.9654 6.87686 34.7536 6.91925 34.5418 6.91925C34.3299 6.91925 34.1179 6.87686 33.9272 6.7707C33.7453 6.66929 33.5921 6.52313 33.4824 6.34603C33.3765 6.15496 33.3341 5.96389 33.3341 5.7303C33.3341 5.49684 33.3764 5.28451 33.4824 5.11457C33.5883 4.92349 33.7366 4.7962 33.9274 4.69004C34.1179 4.58387 34.3299 4.54135 34.5418 4.54135C34.7536 4.54135 34.9654 4.58387 35.1561 4.69004C35.3381 4.79138 35.4913 4.9375 35.6011 5.11457C35.6857 5.28451 35.7494 5.47558 35.7494 5.7303ZM33.4824 15.879V7.87474H35.6009V15.879H33.4824ZM41.2578 9.97652V9.99792C41.1519 9.9554 41.0248 9.93414 40.9187 9.91301C40.7917 9.89175 40.6857 9.89175 40.5586 9.89175C39.9654 9.89175 39.5205 10.0616 39.2239 10.4226C38.9061 10.7835 38.7578 11.293 38.7578 11.9512V15.879H36.6392V7.87474H38.5882L38.6519 9.08495C38.8637 8.66028 39.118 8.34179 39.4781 8.10833C39.8171 7.87461 40.2195 7.76857 40.6857 7.76857C40.8341 7.76857 40.9824 7.7897 41.1095 7.81096C41.1729 7.83222 41.2153 7.83222 41.2578 7.85348V9.97652ZM42.1052 15.879V4.58374H44.2239V8.89374C44.5204 8.51173 44.8594 8.21436 45.2831 7.9809C45.707 7.76857 46.1731 7.64115 46.7026 7.64115C47.2321 7.64115 47.7195 7.74731 48.1644 7.95964C48.6094 8.17198 48.9907 8.46921 49.3297 8.85135C49.6688 9.2335 49.923 9.67942 50.1137 10.1679C50.3043 10.6773 50.389 11.2293 50.389 11.8237C50.389 12.4183 50.2831 12.9915 50.0925 13.5011C49.9017 14.0107 49.6264 14.4565 49.2873 14.8599C48.9484 15.2422 48.5459 15.5605 48.0798 15.7728C47.6136 15.9852 47.1264 16.0913 46.5756 16.0913C46.0458 16.0913 45.5798 15.9852 45.1561 15.7516C44.7322 15.5393 44.3933 15.2208 44.118 14.8175L44.0543 15.8578L42.1052 15.879ZM46.1941 14.2018C46.5756 14.2018 46.9146 14.0956 47.2323 13.9045C47.5289 13.6922 47.7619 13.4162 47.9526 13.0766C48.1221 12.7368 48.2069 12.3334 48.2069 11.8875C48.2069 11.4416 48.1221 11.0382 47.9526 10.6986C47.7619 10.3588 47.5289 10.0828 47.2323 9.87062C46.9357 9.65816 46.5756 9.57325 46.1941 9.57325C45.8128 9.57325 45.4738 9.67942 45.1561 9.87049C44.8594 10.0828 44.6263 10.3588 44.4357 10.6984C44.2662 11.0382 44.1815 11.4416 44.1815 11.8875C44.1815 12.3334 44.2662 12.7368 44.4357 13.0765C44.6052 13.4162 44.8595 13.6922 45.1561 13.9044C45.4738 14.0956 45.8128 14.2018 46.1941 14.2018ZM51.1942 15.879V7.87474H53.1432L53.2069 8.91513C53.4399 8.53286 53.7576 8.23562 54.1602 8.00216C54.5627 7.76857 55.0288 7.66241 55.5586 7.66241C56.1518 7.66241 56.6601 7.81096 57.0839 8.08707C57.5289 8.36305 57.8678 8.76645 58.1009 9.27602C58.334 9.78558 58.461 10.4012 58.461 11.102V15.9003H56.3424V11.3779C56.3424 10.826 56.2153 10.3801 55.9611 10.0614C55.7069 9.7432 55.3678 9.57325 54.9229 9.57325C54.6051 9.57325 54.3297 9.6369 54.0755 9.78559C53.8424 9.93414 53.6517 10.1252 53.5034 10.4013C53.3551 10.656 53.2916 10.9744 53.2916 11.293V15.879H51.1942ZM59.5203 15.879V4.58374H61.639V8.89374C61.9355 8.51173 62.2745 8.21436 62.6982 7.9809C63.1221 7.76857 63.5882 7.64115 64.1177 7.64115C64.6475 7.64115 65.1348 7.74731 65.5796 7.95964C66.0246 8.17198 66.4059 8.46921 66.7448 8.85135C67.0842 9.2335 67.338 9.67942 67.5289 10.1679C67.7198 10.6773 67.804 11.2293 67.804 11.8237C67.804 12.4183 67.6986 12.9915 67.5077 13.5011C67.3168 14.0107 67.0417 14.4565 66.7023 14.8599C66.3635 15.2422 65.961 15.5605 65.4949 15.7728C65.0287 15.9852 64.5415 16.0913 63.9907 16.0913C63.4611 16.0913 62.995 15.9852 62.5712 15.7516C62.1473 15.5393 61.8085 15.2208 61.5331 14.8175L61.4696 15.8578L59.5203 15.879ZM63.6305 14.2018C64.0118 14.2018 64.3508 14.0956 64.6686 13.9045C64.9652 13.6922 65.1982 13.4162 65.389 13.0766C65.5585 12.7368 65.6433 12.3334 65.6433 11.8875C65.6433 11.4416 65.5585 11.0382 65.389 10.6986C65.2195 10.3588 64.9652 10.0828 64.6686 9.87062C64.3719 9.65816 64.0118 9.57325 63.6305 9.57325C63.2491 9.57325 62.9102 9.67942 62.5923 9.87049C62.2958 10.0828 62.0628 10.3588 61.872 10.6984C61.6814 11.0382 61.6177 11.4416 61.6177 11.8875C61.6177 12.3334 61.7026 12.7368 61.872 13.0765C62.0416 13.4162 62.2959 13.6922 62.5923 13.9044C62.9102 14.0956 63.228 14.2018 63.6305 14.2018Z" fill="#FF385C"/>
    </g>
    <defs>
      <clipPath id="clip0_761_482">
        <rect width="67.6079" height="21.2595" fill="white" transform="translate(0.196045 0.125732)"/>
      </clipPath>
    </defs>
  </svg>