<svg width="85" height="85" viewBox="0 0 85 85" fill="none" xmlns="http://www.w3.org/2000/svg">
<g clip-path="url(#clip0_1210_1157)">
<rect width="85" height="85" rx="20" fill="#175574"/>
<path d="M30.9121 28.8328V39.7703H34.5579V38.6765C34.5579 38.193 34.75 37.7294 35.0919 37.3875C35.4337 37.0457 35.8974 36.8536 36.3809 36.8536C36.8643 36.8536 37.328 37.0457 37.6699 37.3875C38.0117 37.7294 38.2038 38.193 38.2038 38.6765V39.7703H41.8496V36.1244H42.9434C43.4268 36.1244 43.8905 35.9324 44.2324 35.5905C44.5742 35.2486 44.7663 34.785 44.7663 34.3015C44.7663 33.818 44.5742 33.3544 44.2324 33.0125C43.8905 32.6707 43.4268 32.4786 42.9434 32.4786H41.8496V28.8328H30.9121Z" fill="white"/>
<path d="M30.9121 55.0827H41.8496V51.4368H40.7559C40.2724 51.4368 39.8087 51.2448 39.4669 50.9029C39.125 50.5611 38.9329 50.0974 38.9329 49.6139C38.9329 49.1305 39.125 48.6668 39.4669 48.3249C39.8087 47.9831 40.2724 47.791 40.7559 47.791H41.8496V44.1452H38.2038V43.0514C38.2038 42.568 38.0117 42.1043 37.6699 41.7624C37.328 41.4206 36.8643 41.2285 36.3809 41.2285C35.8974 41.2285 35.4337 41.4206 35.0919 41.7624C34.75 42.1043 34.5579 42.568 34.5579 43.0514V44.1452H30.9121V55.0827Z" fill="white"/>
<path d="M47.3262 36.1244H46.2324V39.7703H49.8783V40.864C49.8783 41.3475 50.0703 41.8111 50.4122 42.153C50.754 42.4949 51.2177 42.6869 51.7012 42.6869C52.1846 42.6869 52.6483 42.4949 52.9902 42.153C53.332 41.8111 53.5241 41.3475 53.5241 40.864V39.7703H57.1699V28.8328H46.2324V32.4786H47.3262C47.8096 32.4786 48.2733 32.6707 48.6152 33.0125C48.957 33.3544 49.1491 33.818 49.1491 34.3015C49.1491 34.785 48.957 35.2486 48.6152 35.5905C48.2733 35.9324 47.8096 36.1244 47.3262 36.1244Z" fill="white"/>
<path d="M46.2292 47.7916H45.1354C44.6519 47.7916 44.1883 47.9836 43.8464 48.3255C43.5046 48.6674 43.3125 49.131 43.3125 49.6145C43.3125 50.098 43.5046 50.5616 43.8464 50.9035C44.1883 51.2454 44.6519 51.4374 45.1354 51.4374H46.2292V55.0833H57.1667V44.1458H53.5208V45.2395C53.5208 45.723 53.3288 46.1866 52.9869 46.5285C52.6451 46.8704 52.1814 47.0624 51.6979 47.0624C51.2144 47.0624 50.7508 46.8704 50.4089 46.5285C50.0671 46.1866 49.875 45.723 49.875 45.2395V44.1458H46.2292V47.7916Z" fill="white"/>
<path d="M65.1869 20.083H59.3535C59.1601 20.083 58.9747 20.1598 58.8379 20.2966C58.7012 20.4333 58.6244 20.6188 58.6244 20.8122V22.9997H46.8556C46.6877 22.3818 46.3211 21.8363 45.8125 21.4475C45.3038 21.0586 44.6813 20.8479 44.041 20.8479C43.4007 20.8479 42.7782 21.0586 42.2696 21.4475C41.7609 21.8363 41.3943 22.3818 41.2264 22.9997H29.4577V20.8122C29.4577 20.6188 29.3809 20.4333 29.2441 20.2966C29.1074 20.1598 28.9219 20.083 28.7285 20.083H22.8952C22.7018 20.083 22.5163 20.1598 22.3796 20.2966C22.2428 20.4333 22.166 20.6188 22.166 20.8122V26.6455C22.166 26.8389 22.2428 27.0244 22.3796 27.1611C22.5163 27.2979 22.7018 27.3747 22.8952 27.3747H28.7285C28.9219 27.3747 29.1074 27.2979 29.2441 27.1611C29.3809 27.0244 29.4577 26.8389 29.4577 26.6455V24.458H41.2264C41.3943 25.0759 41.7609 25.6213 42.2696 26.0102C42.7782 26.3991 43.4007 26.6098 44.041 26.6098C44.6813 26.6098 45.3038 26.3991 45.8125 26.0102C46.3211 25.6213 46.6877 25.0759 46.8556 24.458H58.6244V26.6455C58.6244 26.8389 58.7012 27.0244 58.8379 27.1611C58.9747 27.2979 59.1601 27.3747 59.3535 27.3747H65.1869C65.3802 27.3747 65.5657 27.2979 65.7024 27.1611C65.8392 27.0244 65.916 26.8389 65.916 26.6455V20.8122C65.916 20.6188 65.8392 20.4333 65.7024 20.2966C65.5657 20.1598 65.3802 20.083 65.1869 20.083ZM44.041 25.1872C43.7526 25.1872 43.4706 25.1016 43.2308 24.9414C42.991 24.7812 42.8041 24.5534 42.6937 24.2869C42.5833 24.0204 42.5544 23.7272 42.6107 23.4443C42.667 23.1614 42.8059 22.9016 43.0098 22.6976C43.2138 22.4937 43.4736 22.3548 43.7565 22.2985C44.0394 22.2423 44.3326 22.2711 44.5991 22.3815C44.8656 22.4919 45.0933 22.6788 45.2536 22.9186C45.4138 23.1585 45.4993 23.4404 45.4993 23.7288C45.4993 24.1156 45.3457 24.4865 45.0722 24.76C44.7987 25.0335 44.4278 25.1872 44.041 25.1872Z" fill="white"/>
<path d="M65.1869 56.5415H59.3535C59.1601 56.5415 58.9747 56.6183 58.8379 56.7551C58.7012 56.8918 58.6244 57.0773 58.6244 57.2707V59.4582H46.8556C46.6877 58.8403 46.3211 58.2948 45.8125 57.906C45.3038 57.5171 44.6813 57.3064 44.041 57.3064C43.4007 57.3064 42.7782 57.5171 42.2696 57.906C41.7609 58.2948 41.3943 58.8403 41.2264 59.4582H29.4577V57.2707C29.4577 57.0773 29.3809 56.8918 29.2441 56.7551C29.1074 56.6183 28.9219 56.5415 28.7285 56.5415H22.8952C22.7018 56.5415 22.5163 56.6183 22.3796 56.7551C22.2428 56.8918 22.166 57.0773 22.166 57.2707V63.104C22.166 63.2974 22.2428 63.4829 22.3796 63.6196C22.5163 63.7563 22.7018 63.8332 22.8952 63.8332H28.7285C28.9219 63.8332 29.1074 63.7563 29.2441 63.6196C29.3809 63.4829 29.4577 63.2974 29.4577 63.104V60.9165H41.2264C41.3943 61.5344 41.7609 62.0798 42.2696 62.4687C42.7782 62.8576 43.4007 63.0683 44.041 63.0683C44.6813 63.0683 45.3038 62.8576 45.8125 62.4687C46.3211 62.0798 46.6877 61.5344 46.8556 60.9165H58.6244V63.104C58.6244 63.2974 58.7012 63.4829 58.8379 63.6196C58.9747 63.7563 59.1601 63.8332 59.3535 63.8332H65.1869C65.3802 63.8332 65.5657 63.7563 65.7024 63.6196C65.8392 63.4829 65.916 63.2974 65.916 63.104V57.2707C65.916 57.0773 65.8392 56.8918 65.7024 56.7551C65.5657 56.6183 65.3802 56.5415 65.1869 56.5415ZM44.041 61.6457C43.7526 61.6457 43.4706 61.5601 43.2308 61.3999C42.991 61.2397 42.8041 61.0119 42.6937 60.7454C42.5833 60.4789 42.5544 60.1857 42.6107 59.9028C42.667 59.6199 42.8059 59.3601 43.0098 59.1561C43.2138 58.9522 43.4736 58.8133 43.7565 58.757C44.0394 58.7008 44.3326 58.7296 44.5991 58.84C44.8656 58.9504 45.0933 59.1373 45.2536 59.3771C45.4138 59.617 45.4993 59.8989 45.4993 60.1873C45.4993 60.5741 45.3457 60.945 45.0722 61.2185C44.7987 61.492 44.4278 61.6457 44.041 61.6457Z" fill="white"/>
<path d="M61.5397 38.3125H58.623V39.7708H62.2689C62.4623 39.7708 62.6477 39.694 62.7845 39.5573C62.9212 39.4205 62.998 39.2351 62.998 39.0417V31.75H61.5397V38.3125Z" fill="white"/>
<path d="M26.5404 45.6041H29.457V44.1458H25.8112C25.6178 44.1458 25.4323 44.2226 25.2956 44.3593C25.1589 44.4961 25.082 44.6815 25.082 44.8749V52.8958H26.5404V45.6041Z" fill="white"/>
<path d="M26.5404 54.3538H25.082V55.8121H26.5404V54.3538Z" fill="white"/>
<path d="M63.0013 28.8328H61.543V30.2911H63.0013V28.8328Z" fill="white"/>
</g>
<defs>
<clipPath id="clip0_1210_1157">
<rect width="85" height="85" fill="white"/>
</clipPath>
</defs>
</svg>
