<svg width="85" height="85" viewBox="0 0 85 85" fill="none" xmlns="http://www.w3.org/2000/svg">
<g clip-path="url(#clip0_1206_1043)">
<rect width="85" height="85" rx="20" fill="#062B43"/>
<path d="M36.693 57.2078H49.2827C50.2338 57.2114 51.0051 57.9827 51.0051 58.9339V60.3723C51.0051 61.3234 50.2338 62.0947 49.2827 62.0947H36.693C35.7418 62.0947 34.9705 61.3234 34.9705 60.3723V58.9339C34.9705 57.9827 35.7418 57.2114 36.693 57.2078ZM62.167 32.6507V49.8161L23.834 49.8143V32.6507C23.8358 31.5809 24.6611 30.6927 25.7273 30.6118V32.2048C25.7291 33.1865 26.4339 34.0279 27.4012 34.2042C26.8438 35.0133 26.9481 36.1065 27.6457 36.7969L28.8198 37.971V37.9728C29.201 38.3557 29.7188 38.5697 30.2582 38.5661C30.6735 38.5697 31.0799 38.4421 31.4179 38.2029C31.5887 39.1648 32.4212 39.8679 33.3993 39.8751H35.0624C36.0459 39.8733 36.8856 39.1684 37.0618 38.2029C37.4016 38.4421 37.8062 38.5697 38.2215 38.5661C38.7627 38.5697 39.2805 38.3558 39.6599 37.9728L40.8358 36.7969C41.5298 36.1029 41.6287 35.0115 41.0695 34.2042C42.0368 34.028 42.7416 33.1865 42.7434 32.2048V30.5938H60.0906C60.639 30.5884 61.1676 30.8024 61.5578 31.189C61.948 31.5755 62.167 32.1005 62.167 32.6507ZM41.2332 45.7923C41.2314 44.4959 40.1796 43.4459 38.8832 43.4423H29.0267C27.7303 43.4459 26.6785 44.4959 26.6767 45.7923V45.8984C26.6785 47.1947 27.7303 48.2448 29.0267 48.2465H38.8832C40.1796 48.2447 41.2314 47.1947 41.2332 45.8984V45.7923ZM59.3712 35.1625C59.3712 34.7184 59.195 34.294 58.8803 33.9812C58.5675 33.6683 58.1414 33.4921 57.6973 33.4939H44.5897C43.6674 33.4939 42.9176 34.2401 42.9158 35.1625V46.132C42.9176 47.0561 43.6656 47.8041 44.5897 47.8059H57.6973C58.6214 47.8059 59.3712 47.0561 59.3712 46.132V35.1625ZM40.2749 45.7923V45.8984C40.2749 46.6661 39.651 47.2882 38.8833 47.2882H29.0267C28.2626 47.2828 27.6459 46.6625 27.6459 45.8984V45.7923C27.6459 45.0245 28.268 44.4024 29.0357 44.4024H38.8835C39.2521 44.4024 39.6063 44.5481 39.867 44.8088C40.1277 45.0695 40.2749 45.4237 40.2749 45.7923ZM36.2762 45.8498C36.2762 45.7222 36.2258 45.5999 36.1359 45.51C36.046 45.4201 35.9238 45.3697 35.7961 45.3697H29.6021C29.336 45.3697 29.122 45.5855 29.122 45.8498C29.122 46.1141 29.3359 46.3299 29.6021 46.3299H35.7961C35.9238 46.3299 36.046 46.2796 36.1359 46.1897C36.2258 46.0998 36.2762 45.9775 36.2762 45.8498ZM23.8342 50.7744H62.1672V52.3045V52.3027C62.1672 53.4372 61.2484 54.356 60.1139 54.356H25.8857C24.753 54.356 23.8343 53.4372 23.8343 52.3027L23.8342 50.7744ZM41.0374 52.0834C41.0374 52.2092 41.0877 52.3315 41.1776 52.4214C41.2675 52.5113 41.3898 52.5616 41.5156 52.5616H44.4607C44.725 52.5616 44.939 52.3477 44.939 52.0833C44.939 51.8172 44.725 51.6033 44.4607 51.6033H41.5156C41.2513 51.6033 41.0374 51.8172 41.0374 52.0834ZM58.4131 35.1624V37.3685H43.8746V35.1624C43.8782 34.7704 44.1964 34.4521 44.5902 34.4521H57.6977C57.8865 34.4521 58.0699 34.5259 58.2029 34.6589C58.3378 34.792 58.4131 34.9736 58.4131 35.1624ZM52.6973 36.02C52.6973 35.8942 52.6469 35.7719 52.5571 35.682C52.4672 35.5921 52.3449 35.5417 52.2172 35.5417H45.2895C45.0252 35.5417 44.8094 35.7557 44.8094 36.02C44.8094 36.2861 45.0252 36.5001 45.2895 36.5001H52.2172C52.3449 36.5001 52.4672 36.4498 52.5571 36.3599C52.6469 36.27 52.6973 36.1477 52.6973 36.02ZM34.2228 34.2184C35.3736 34.2184 36.411 33.5244 36.8497 32.4618C37.2902 31.401 37.0475 30.1766 36.2348 29.3638C35.4203 28.5512 34.1977 28.3084 33.1351 28.7471C32.0724 29.1877 31.3802 30.2251 31.3802 31.374C31.382 32.9437 32.655 34.2148 34.2228 34.2184ZM26.6857 32.2047V30.5451C26.6893 29.9536 27.1676 29.4735 27.7609 29.4717H28.543H28.5412C28.5861 29.4699 28.6275 29.4412 28.6419 29.3998C28.7138 29.2038 28.7947 29.0114 28.881 28.8245H28.8828C28.9116 28.7867 28.9116 28.7363 28.8828 28.6986L28.3308 28.143C27.9137 27.7241 27.9137 27.0463 28.3308 26.6273L29.5049 25.4532C29.9238 25.0361 30.6017 25.0361 31.0206 25.4532L31.5762 26.0142C31.6158 26.0412 31.6679 26.0412 31.7057 26.0142C31.8908 25.9261 32.0796 25.847 32.272 25.7787C32.3188 25.7661 32.3511 25.7229 32.3493 25.6744V24.9013C32.3493 24.3187 32.815 23.8422 33.3993 23.8333H35.0625C35.6522 23.8333 36.1323 24.3115 36.1323 24.9013V25.678C36.1341 25.7247 36.1647 25.7643 36.2078 25.7787C36.4038 25.8506 36.6016 25.9279 36.7921 26.0178L36.7939 26.0196C36.8317 26.043 36.8802 26.043 36.918 26.0196L37.4646 25.473C37.8835 25.0559 38.5613 25.0559 38.9803 25.473L40.1508 26.6471H40.149C40.3522 26.8467 40.4655 27.12 40.4655 27.404C40.4655 27.6899 40.3522 27.9614 40.149 28.1628L39.6312 28.6662C39.6024 28.7022 39.6024 28.7543 39.6312 28.7903C39.7283 28.9881 39.8128 29.1912 39.8865 29.3998C39.9027 29.443 39.944 29.4699 39.9908 29.4717H40.7207C41.3141 29.4717 41.7941 29.9518 41.7941 30.5451V32.2047C41.7941 32.798 41.3141 33.2781 40.7207 33.2781H39.9908C39.944 33.2781 39.9027 33.3068 39.8865 33.35C39.8146 33.5675 39.7301 33.7797 39.6312 33.9882C39.606 34.026 39.606 34.0746 39.6312 34.1123L40.1113 34.5924C40.3144 34.792 40.4277 35.0652 40.4277 35.3493C40.4277 35.6334 40.3144 35.9067 40.1113 36.1063L38.9408 37.2804V37.2822C38.5218 37.6993 37.8458 37.6993 37.4268 37.2822L36.9468 36.8021C36.9108 36.7733 36.8587 36.7733 36.8227 36.8021C36.6123 36.901 36.3984 36.9891 36.179 37.0664C36.1323 37.079 36.1017 37.1221 36.1035 37.1707V37.8611C36.1035 38.4527 35.6234 38.9309 35.0337 38.9309H33.3993C32.8078 38.9309 32.3296 38.4526 32.3296 37.8611V37.1383C32.3296 37.0916 32.3008 37.0502 32.2576 37.0322C32.0419 36.9585 31.8333 36.8704 31.6301 36.7679C31.5924 36.7427 31.542 36.7427 31.5043 36.7679L31.0008 37.248C30.5819 37.6651 29.9058 37.6651 29.4869 37.248L28.3128 36.0739H28.311C27.8939 35.655 27.8939 34.9771 28.311 34.5582L28.8378 34.0314H28.8396C28.8648 33.9936 28.8648 33.9433 28.8396 33.9055C28.7461 33.7113 28.6652 33.51 28.5951 33.3014C28.5789 33.2601 28.5393 33.2313 28.4944 33.2295H27.75C27.18 33.2223 26.7144 32.7728 26.6857 32.2047ZM30.4309 31.3758V31.374C30.4309 32.9131 31.3568 34.2993 32.7773 34.8873C34.1995 35.4752 35.8338 35.1498 36.9216 34.0638C38.0094 32.976 38.3348 31.3398 37.7451 29.9194C37.1572 28.499 35.7709 27.573 34.2337 27.573C33.2232 27.5712 32.2541 27.9704 31.5403 28.6842C30.8247 29.398 30.4219 30.3653 30.4219 31.374L30.4309 31.3758ZM43.885 38.3284L58.4125 38.3266V46.1316C58.4125 46.3222 58.337 46.5038 58.2021 46.6369C58.0691 46.7717 57.8875 46.8473 57.6969 46.8473H44.5894C44.1938 46.8473 43.8738 46.5272 43.8738 46.1317L43.885 38.3284ZM56.3504 42.7586L54.1587 44.954V44.9522C53.9735 45.1392 53.9735 45.4412 54.1587 45.6282C54.3457 45.8152 54.6478 45.8152 54.8348 45.6282L57.3717 43.0967C57.5569 42.9097 57.5569 42.6076 57.3717 42.4206L54.8348 39.8836V39.8854C54.6478 39.6985 54.3457 39.6985 54.1587 39.8854C54.0688 39.9753 54.0167 40.0976 54.0167 40.2253C54.0167 40.3529 54.0688 40.4752 54.1587 40.5651L56.3504 42.7586ZM49.7628 45.6354V45.6336C49.833 45.6714 49.9121 45.6911 49.993 45.6911C50.1674 45.6894 50.3274 45.5941 50.4101 45.4412L53.215 40.3546C53.3391 40.1227 53.2546 39.8332 53.0226 39.7074C52.9111 39.6462 52.7799 39.6301 52.6576 39.666C52.5354 39.7002 52.4329 39.7829 52.3717 39.8944L49.5471 44.9773C49.486 45.0888 49.4716 45.22 49.5076 45.3423C49.5435 45.4645 49.6262 45.5688 49.7395 45.6282L49.7628 45.6354ZM44.9676 43.1038L47.5045 45.6354V45.6336C47.5926 45.7235 47.7131 45.7757 47.8408 45.7775C48.035 45.7792 48.2112 45.6624 48.2849 45.4826C48.3604 45.3028 48.319 45.0942 48.1806 44.9576L45.9601 42.7569L48.1572 40.5759C48.2471 40.486 48.2992 40.3619 48.2992 40.2343C48.2992 40.1066 48.2471 39.9844 48.1572 39.8945C47.9702 39.7093 47.6682 39.7093 47.4811 39.8945L44.9442 42.4314C44.7644 42.6166 44.7644 42.9115 44.9442 43.0967L44.9676 43.1038ZM38.333 55.3138V56.2721H47.6432V55.3138H38.333Z" fill="white"/>
</g>
<defs>
<clipPath id="clip0_1206_1043">
<rect width="85" height="85" fill="white"/>
</clipPath>
</defs>
</svg>
