<svg width="85" height="85" viewBox="0 0 85 85" fill="none" xmlns="http://www.w3.org/2000/svg">
<g clip-path="url(#clip0_1210_1171)">
<rect width="85" height="85" rx="20" fill="#D79442"/>
<path fill-rule="evenodd" clip-rule="evenodd" d="M47.434 28.093C48.4728 28.403 49.4681 28.8171 50.4053 29.3262L55.1793 26.894L59.106 30.8207L56.6738 35.5947C57.1829 36.5319 57.5993 37.5267 57.907 38.5684L63 40.2231V45.7769L57.907 47.4316C57.5993 48.4728 57.1829 49.4681 56.6738 50.4053L59.106 55.1793L55.1793 59.106L50.4076 56.6738C49.4681 57.1829 48.4733 57.5993 47.4316 57.907L45.7769 63H40.2231L38.5684 57.907C37.5272 57.5993 36.5319 57.1829 35.5947 56.6738L30.8207 59.106L26.894 55.1793L29.3262 50.4076C28.8171 49.4681 28.4007 48.4733 28.093 47.4316L23 45.7769V40.2231L28.093 38.5684C28.4007 37.5272 28.8171 36.5319 29.3262 35.5947L26.894 30.8207L30.8207 26.894L35.5947 29.3262C36.5319 28.8171 37.5267 28.403 38.5684 28.093L40.2231 23H45.7769L47.434 28.093ZM32.5176 46.612H53.4829C54.0871 46.612 54.5798 46.1169 54.5798 45.5151V40.4868C54.5798 39.8826 54.0871 39.3899 53.4829 39.3899H32.5181C31.9139 39.3899 31.4212 39.8826 31.4212 40.4868V45.5151C31.4212 46.1169 31.9134 46.612 32.5176 46.612ZM43.4098 33.3227V36.9534C44.6365 36.9258 45.8092 36.7731 46.8926 36.5137C46.0757 34.85 44.8655 33.5353 43.4098 33.3227ZM47.693 36.2963C48.2878 36.116 48.8433 35.9029 49.3543 35.6622C48.3595 34.799 47.1862 34.1348 45.8996 33.732C46.6307 34.4168 47.2279 35.3151 47.693 36.2963ZM48.0171 37.0485C48.2044 37.53 48.3712 38.0391 48.5122 38.5735H51.6408C51.2034 37.7197 50.6437 36.9422 49.9837 36.257C49.3866 36.5624 48.7253 36.8284 48.0171 37.0485ZM48.5122 47.427C48.3712 47.9614 48.2044 48.4728 48.0171 48.9543C48.7253 49.1739 49.3871 49.4381 49.9842 49.7435C50.6437 49.0606 51.2038 48.2808 51.6413 47.427H48.5122ZM47.693 49.7041C47.2279 50.6854 46.6307 51.5832 45.8996 52.2679C47.1862 51.8652 48.3595 51.201 49.3543 50.3402C48.8428 50.0971 48.2873 49.8849 47.693 49.7041ZM40.1032 52.2679C39.3721 51.5832 38.7726 50.6854 38.3098 49.7041C37.715 49.8845 37.1576 50.0976 36.6462 50.3406C37.641 51.2015 38.8142 51.8652 40.1032 52.2679ZM37.9857 48.9543C37.796 48.4728 37.6293 47.9614 37.4883 47.427H34.3597C34.7971 48.2808 35.3568 49.0606 36.0167 49.7435C36.6162 49.4381 37.2752 49.1744 37.9857 48.9543ZM37.4883 38.5735C37.6293 38.0391 37.796 37.53 37.9857 37.0485C37.2752 36.8289 36.6158 36.5624 36.0163 36.257C35.3568 36.9417 34.7966 37.7197 34.3592 38.5735H37.4883ZM38.3098 36.2963C38.7726 35.3151 39.3721 34.4173 40.1032 33.7325C38.8142 34.1353 37.641 34.7994 36.6462 35.6626C37.1576 35.9034 37.7155 36.1155 38.3098 36.2963ZM42.593 33.3227C41.135 33.5358 39.9247 34.85 39.1103 36.5137C40.1908 36.7727 41.3664 36.9253 42.593 36.9534V33.3227ZM38.7726 37.2682C38.6082 37.6799 38.4602 38.1173 38.3328 38.5735H42.593V37.7684C41.26 37.7408 39.9688 37.5689 38.7726 37.2682ZM38.3328 47.427C38.4602 47.885 38.6082 48.3201 38.7726 48.7323C39.9664 48.4339 41.2624 48.2602 42.593 48.2325V47.4274L38.3328 47.427ZM39.1103 49.4887C39.9247 51.15 41.1373 52.4647 42.593 52.6773V49.0489C41.3664 49.0765 40.1912 49.2269 39.1103 49.4887ZM43.4098 52.6773C44.8655 52.4642 46.0757 51.15 46.8926 49.4887C45.8097 49.2273 44.6365 49.077 43.4098 49.0489V52.6773ZM47.2279 48.7318C47.3923 48.3201 47.5403 47.885 47.67 47.4265H43.4098V48.2316C44.7404 48.2592 46.034 48.4335 47.2279 48.7318ZM47.67 38.573C47.5403 38.1173 47.3923 37.6799 47.2279 37.2677C46.034 37.5684 44.7404 37.7398 43.4098 37.7675V38.5726L47.67 38.573ZM41.8249 32.5405C46.2495 32.0502 50.6043 34.3826 52.5504 38.573H53.4829C54.5358 38.573 55.3966 39.4339 55.3966 40.4868V45.5151C55.3966 46.5656 54.5358 47.4265 53.4829 47.4265H52.5504C50.5973 51.6357 46.1938 53.9798 41.7509 53.4501C38.0902 53.0126 34.9732 50.7031 33.4506 47.4265H32.5181C31.4652 47.4265 30.6043 46.5656 30.6043 45.5151V40.4868C30.6043 39.4339 31.4652 38.573 32.5181 38.573H33.4506C34.9826 35.2758 38.1389 32.9522 41.8249 32.5405ZM50.3172 43.4093C49.7805 43.4093 49.7805 42.5925 50.3172 42.5925H51.7776C52.3143 42.5925 52.3143 43.4093 51.7776 43.4093H50.3172ZM34.2252 43.4093C33.6861 43.4093 33.6861 42.5925 34.2252 42.5925H35.6832C36.2223 42.5925 36.2223 43.4093 35.6832 43.4093H34.2252ZM38.2471 43.4093C37.7103 43.4093 37.7103 42.5925 38.2471 42.5925H39.7074C40.2442 42.5925 40.2442 43.4093 39.7074 43.4093H38.2471ZM42.2712 43.4093C41.7321 43.4093 41.7321 42.5925 42.2712 42.5925H43.7316C44.2683 42.5925 44.2683 43.4093 43.7316 43.4093H42.2712ZM46.2931 43.4093C45.7563 43.4093 45.7563 42.5925 46.2931 42.5925H47.7534C48.2901 42.5925 48.2901 43.4093 47.7534 43.4093H46.2931Z" fill="white"/>
</g>
<defs>
<clipPath id="clip0_1210_1171">
<rect width="85" height="85" fill="white"/>
</clipPath>
</defs>
</svg>
